<svg width="261" height="94" viewBox="0 0 261 94" fill="none" xmlns="http://www.w3.org/2000/svg">
<path d="M50.5436 60.945C50.5436 60.945 47.4375 61.2267 46.3081 60.7572L45.461 62.7292C46.1198 63.3866 45.9316 64.6073 45.9316 64.6073L46.4022 65.6403C46.4022 65.6403 43.4844 66.955 40.9431 67.2367C38.8724 67.4245 35.9547 66.4855 35.9547 66.4855C35.9547 67.3306 35.7664 68.2697 35.2017 68.5514C34.7311 68.8331 34.2605 69.4905 34.2605 70.2417V71.6503H30.1191C30.1191 71.6503 30.4015 70.8051 30.6838 70.1478C30.9662 69.4905 32.0015 68.927 32.5663 68.3636C33.2251 67.6123 33.7899 65.922 33.7899 65.922C33.7899 65.922 32.6604 64.8891 30.025 62.0719C27.2013 59.1608 26.166 55.4045 25.9777 54.935C25.6954 54.8411 23.3423 53.9959 22.6835 53.8081C22.2129 53.6203 21.8364 53.8081 21.7423 53.8081C21.8364 54.0899 22.0246 55.1228 22.2129 55.8741C22.307 56.3436 22.7776 56.8131 23.1541 57.1888C23.5306 57.5644 23.9071 57.8461 23.9071 57.8461L23.5306 58.5973L25.2248 59.6303L24.1894 62.917C24.1894 62.917 23.06 62.0719 21.9305 60.5694C21.1775 59.5364 20.3304 57.4705 19.3892 53.1508C19.1068 51.93 19.2951 50.8031 20.1422 50.897C20.5187 50.897 24.0012 51.4605 24.0012 51.4605C24.0012 51.4605 25.7895 48.925 26.3542 47.986C27.1072 46.8591 25.7895 42.5394 24.8483 42.5394C24.5659 42.5394 24.4718 42.915 24.5659 43.3846C24.9424 43.4785 25.2248 43.8541 25.2248 44.2297C25.2248 44.6992 24.8483 45.0749 24.3777 45.0749C24.3777 45.0749 24.5659 46.5774 24.3777 46.7652C24.1894 47.0469 22.8717 47.4225 22.307 47.4225C21.554 47.4225 20.801 45.8261 20.4246 44.981C20.1422 44.1358 19.0127 40.1918 18.7304 38.7832C18.5421 37.7502 19.0127 36.3416 19.3892 35.8721L18.9186 33.1488L20.7069 34.3696L19.7657 32.3036L22.5894 33.9C23.1541 33.7122 23.7188 33.6183 24.2835 33.6183C24.7542 33.6183 25.1306 33.6183 25.6954 33.7122C26.6366 33.8061 27.7661 34.0879 29.3661 34.7452L29.4603 34.6513C29.4603 34.6513 29.5544 34.7452 29.5544 34.8391C30.1191 35.1208 30.6838 35.4025 31.3427 35.7782C31.6251 35.8721 31.8133 36.0599 32.0957 36.1538C32.378 36.2477 32.5663 36.4355 32.7545 36.5294C32.7545 36.5294 34.637 37.7502 34.7311 37.7502C35.1076 38.0319 35.4841 38.2197 35.8605 38.4075C36.4253 38.7832 37.9312 39.2527 38.496 39.4405C38.6842 39.5344 38.8724 39.5344 39.0607 39.6283C39.0607 39.6283 40.1901 40.0039 40.3784 39.6283C40.5666 39.1588 40.6608 38.7832 40.6608 38.2197C40.6608 37.6563 40.1901 35.4025 40.1901 35.4025C40.096 35.4025 39.0607 35.0269 38.8724 34.933C38.7783 34.933 38.6842 34.8391 38.6842 34.8391C38.496 34.6513 38.5901 33.0549 38.7783 32.6793C38.9666 32.3036 39.3431 32.2097 39.8137 32.3036L38.6842 26.7632C38.3077 26.6693 37.9312 26.4815 37.743 25.8241C37.6489 25.2607 37.9312 24.6972 38.2136 24.5094C38.0253 23.946 37.4606 23.4765 36.8018 23.4765H36.5194C35.7664 23.6643 35.2017 24.4155 35.3899 25.1668C35.4841 25.5424 35.6723 25.8241 36.0488 26.1058C36.3311 26.3876 36.237 26.6693 36.1429 26.7632C36.0488 26.8571 35.9547 26.951 35.8605 26.951H35.7664C35.1076 26.951 34.5428 25.8241 34.4487 25.2607C34.1663 23.946 35.1076 22.6313 36.4253 22.4435C37.0841 22.3496 37.743 22.4435 38.2136 22.8191C38.1195 22.2557 37.8371 20.7532 37.8371 20.7532C37.8371 20.7532 38.5901 20.5654 38.8724 22.4435C38.9666 22.913 39.1548 24.0399 39.1548 24.2277C39.5313 24.3216 40.096 24.6033 40.096 25.4485C40.096 25.918 40.0019 26.1058 39.6254 26.4815L40.849 32.4915C41.602 32.7732 41.7902 32.8671 41.7902 32.8671C42.1667 31.5524 43.2962 28.8291 44.5198 27.2327L44.6139 25.7302C44.6139 25.7302 44.9904 25.6363 44.9904 25.3546C44.9904 25.1668 44.5198 24.979 44.5198 24.979V24.3216L43.8609 24.1338L44.5198 22.0679L44.2374 21.8801C44.2374 21.8801 44.0491 20.4715 44.5198 17.1848C44.9904 14.0859 45.2727 13.0529 45.2727 13.0529L46.7787 17.3726L48.0964 12.959L49.6023 23.3826C51.0142 23.8521 51.673 24.979 51.8613 26.1058C51.9554 27.1388 51.4848 27.7961 51.2965 28.0779L53.179 43.1028C53.179 43.1028 53.2731 43.5724 53.7437 43.7602C54.1202 43.8541 61.5558 44.8871 62.3088 45.0749C64.4736 45.3566 65.8854 48.0799 67.4855 48.2677C68.9914 48.4555 69.8385 47.986 70.968 46.2956C72.0975 44.6053 73.9799 42.8211 76.0506 43.5724C77.8389 44.2297 78.8742 46.2017 78.1213 47.3286C73.7917 53.5264 79.0625 52.2117 79.0625 52.2117C79.0625 52.2117 78.0271 53.5264 76.2388 53.2447C73.1328 52.5874 74.9211 49.3945 73.6034 48.7372C72.0033 47.986 70.4974 51.1788 66.9208 49.5824C68.7091 52.6813 65.3207 55.4984 67.2973 60.4755L69.6503 66.8611H67.0149V67.4245C67.0149 67.988 66.7325 68.4575 66.1678 68.7392C65.6972 69.0209 65.2266 70.2417 65.2266 70.2417V71.8381H61.0852L61.1793 71.7442C61.1793 71.7442 61.4617 70.8051 62.0264 70.1478C62.7794 69.2087 64.003 68.4575 64.5677 66.8611H57.6968V67.4245C57.6968 67.988 57.4145 68.3636 56.8497 68.7392C56.1909 69.2087 55.9085 70.2417 55.9085 70.2417V71.8381H51.7671L51.8613 71.7442C51.8613 71.7442 52.0495 71.1808 52.426 70.6173C52.8025 70.0539 53.7437 69.1148 54.2143 68.7392C54.6849 68.4575 55.0614 67.6123 55.1555 66.8611L50.5436 67.8941L50.7318 66.7672C50.7318 66.7672 49.7906 66.3916 49.6965 66.0159C49.4141 64.7951 51.2965 64.3256 50.5436 60.945V60.945Z" fill="#58595B"/>
<path d="M21.3658 84.6094C21.1775 84.7972 21.1775 84.8911 21.3658 85.0789L21.6482 85.2668V85.3607L21.554 85.4546H21.4599C21.3658 85.4546 21.1775 85.1728 20.6128 84.7972C20.1422 84.4216 19.8598 84.2338 19.7657 84.2338V84.1399L19.8598 83.9521H19.954L20.2363 84.1399C20.4246 84.2338 20.6128 84.2338 20.7069 84.1399C20.8011 84.046 20.9893 83.7643 21.2717 83.3886L21.7423 82.7313C21.9305 82.4496 22.2129 82.0739 22.4011 81.8861C22.5894 81.6044 22.6835 81.3227 22.6835 81.041C22.6835 80.6654 22.4011 80.2897 22.2129 80.1019C21.9305 79.9141 21.554 79.8202 21.2717 79.8202C20.8952 79.9141 20.5187 80.1019 20.2363 80.5714L19.4834 81.6044C19.1069 82.0739 18.8245 82.5435 18.7304 82.7313C18.6363 82.9191 18.6363 83.013 18.8245 83.1069L19.0127 83.2947V83.3886L18.9186 83.5764H18.8245C18.7304 83.5764 18.5421 83.2947 18.1656 83.013C17.7892 82.7313 17.6009 82.6374 17.6009 82.6374C17.5068 82.6374 17.6009 82.5435 17.6009 82.5435L17.695 82.4496H17.7892L17.9774 82.6374C18.1656 82.8252 18.3539 82.6374 18.3539 82.5435C18.448 82.4496 19.0127 81.6983 19.0127 81.6044C19.1069 81.5105 19.7657 80.5714 19.954 80.3836C20.3304 79.9141 20.7069 79.7263 21.2717 79.6324C21.6482 79.6324 22.1188 79.7263 22.5894 80.008C22.8717 80.1958 23.1541 80.4775 23.3423 80.7593C23.5306 81.1349 23.6247 81.6044 23.4365 81.98C23.3423 82.2618 23.06 82.6374 22.4953 83.3886L21.3658 84.6094V84.6094Z" fill="#58595B"/>
<path d="M16.9421 79.6324C17.7892 78.7872 18.4481 78.036 18.5422 77.8481C18.7305 77.5664 18.8246 77.3786 18.6363 77.1908L18.5422 77.0969V77.003L18.6363 76.9091H18.7305L19.2952 77.4725C19.3893 77.5664 19.7658 77.9421 19.8599 77.9421V78.036L19.7658 78.1299H19.6717L19.4834 78.036C19.3893 77.9421 19.2011 77.9421 18.8246 78.2238C18.7305 78.3177 17.9775 78.975 17.2245 79.8202L16.5657 80.4775C16.2833 80.7592 16.1892 81.1349 16.4715 81.4166L16.6598 81.6044V81.6983L16.5657 81.7922H16.4715L16.2833 81.6044L15.8127 81.1349L15.6244 80.947C15.5303 80.8531 15.5303 80.8531 15.4362 80.8531C15.3421 80.7592 15.3421 80.7592 15.3421 80.6653C15.3421 80.5714 15.5303 78.4116 15.6244 78.1299C15.6244 77.9421 15.8127 76.2517 15.8127 76.0639L15.3421 76.6274L14.4009 77.5664C14.2126 77.7542 13.742 78.3177 13.742 78.4116C13.6479 78.5994 13.742 78.7872 13.8361 78.8811L14.0244 79.0689V79.1628L13.9302 79.2567H13.8361L13.2714 78.6933C12.989 78.4116 12.8008 78.3177 12.8008 78.2238V78.1299L12.8949 78.036H12.989L13.1773 78.1299C13.2714 78.2238 13.3655 78.2238 13.6479 78.036C14.0244 77.7542 14.8715 76.9091 15.3421 76.4396L16.6598 75.1249C16.7539 75.031 16.7539 74.9371 16.848 75.031C16.9421 75.1249 16.9421 75.2188 16.9421 75.3127C16.9421 75.4066 16.9421 75.97 16.848 76.6274C16.7539 77.3786 16.7539 78.2238 16.6598 78.4116C16.6598 78.5055 16.4715 80.3836 16.4715 80.4775L16.9421 79.6324Z" fill="#58595B"/>
<path d="M12.8948 74.0919C12.9889 74.0919 14.2125 72.9651 14.2125 72.9651C14.4008 72.7772 14.3066 72.6833 14.2125 72.5894L14.0243 72.4016V72.3077L14.1184 72.2138H14.2125C14.3066 72.3077 14.4008 72.4955 14.8714 73.059C15.342 73.6224 15.5302 73.8102 15.6243 73.9041V73.998L15.4361 74.0919H15.342L15.1537 73.9041C15.0596 73.8102 14.9655 73.7163 14.7772 73.8102C14.6831 73.9041 13.5537 74.8432 13.2713 75.031L12.8948 75.2188C12.8007 75.3127 11.7653 76.1579 11.7653 76.2518C11.6712 76.3457 11.6712 76.4396 11.7653 76.6274L11.9536 76.9091V77.003L11.8595 77.0969H11.7653C11.6712 77.003 11.483 76.7213 11.0124 76.2518C10.5418 75.6883 10.4476 75.5944 10.3535 75.5005V75.4066L10.4476 75.3127H10.5418L10.73 75.5005C10.8241 75.5944 10.9182 75.6883 11.0124 75.5944C11.1065 75.5944 12.236 74.5615 12.3301 74.5615L12.8948 74.0919V74.0919Z" fill="#58595B"/>
<path d="M7.8122 71.6503C7.8122 71.6503 7.71807 71.6503 7.8122 71.6503C7.71807 71.5564 7.52983 71.2747 7.24746 70.8991C6.87098 70.4296 6.77686 70.2418 6.77686 70.2418V70.1478L6.9651 70.0539H7.05922L7.15334 70.1478C7.24746 70.4296 7.34159 70.5235 7.71807 70.5235C8.18868 70.5235 9.31815 70.2418 9.78876 70.1478C10.1652 70.0539 12.33 69.6783 12.4242 69.5844C12.5183 69.5844 12.5183 69.5844 12.6124 69.6783C12.7065 69.7722 12.6124 69.8661 12.5183 69.8661C12.1418 70.4296 11.1065 71.7443 10.73 72.3077C10.4476 72.7772 9.88288 73.5285 9.69463 73.7163C9.60051 73.8102 9.60051 73.998 9.69463 74.0919L9.78876 74.1858V74.2797L9.69463 74.3736H9.60051C9.60051 74.2797 9.41227 74.0919 9.03578 73.5285L8.47105 72.6833V72.5894L8.56517 72.4955H8.65929L8.84754 72.7772C8.94166 72.965 9.03578 72.965 9.1299 72.965L9.31815 72.7772C9.50639 72.5894 10.0711 71.9321 10.2594 71.5564C10.4476 71.3686 11.1065 70.4296 11.3888 70.0539C11.0123 70.1478 9.78876 70.4296 9.50639 70.4296C9.1299 70.5235 8.00044 70.7113 7.8122 70.8991C7.71807 70.993 7.71807 71.0869 7.8122 71.2747L8.00044 71.4625V71.5564L7.8122 71.6503Z" fill="#58595B"/>
<path d="M8.1887 66.5794C8.56519 66.3916 9.12992 66.1098 9.22404 66.0159C9.50641 65.8281 9.60053 65.6403 9.60053 65.5464C9.60053 65.4525 9.50641 65.2647 9.41229 65.0769C9.41229 64.8891 9.22404 64.6073 9.12992 64.5134C9.0358 64.4195 8.84756 64.2317 8.65931 64.1378C8.47107 64.0439 7.90634 63.95 7.71809 63.8561C7.71809 63.8561 7.62397 63.8561 7.62397 63.7622V63.6683H7.71809L8.84756 63.4805C8.94168 63.4805 8.94168 63.4805 9.0358 63.5744L9.31817 64.1378C9.50641 64.5134 9.8829 65.1708 10.3535 66.2037L10.6359 66.7672C10.73 66.8611 10.73 66.955 10.8241 67.0489V67.1428L10.6359 67.2367H10.5418L10.3535 66.8611C10.1653 66.5794 10.1653 66.5794 9.8829 66.6733L7.81222 67.7062C7.34161 67.988 6.49451 68.3636 6.40039 68.4575C6.21214 68.5514 6.21214 68.6453 6.30627 68.8331L6.40039 69.1148V69.2087L6.21214 69.3026H6.11802C6.0239 69.2087 5.92978 68.927 5.64741 68.4575L5.55329 68.2697C5.45917 67.988 4.70619 66.5794 4.51795 66.2977C4.42383 66.2037 4.42383 66.1098 4.42383 66.0159V65.922C4.51795 65.8281 5.27093 65.1708 5.27093 65.1708H5.36505H5.64741V65.2647C5.64741 65.2647 5.27093 66.1098 5.27093 66.2977C5.27093 66.4855 5.27093 66.6733 5.36505 66.8611L5.83566 67.8001L7.62397 66.8611C7.52985 66.6733 7.24748 66.2037 7.24748 66.2037C7.15336 66.1098 7.05924 66.0159 6.871 66.0159C6.77688 66.0159 6.58863 66.0159 6.49451 66.1098H6.40039L6.30627 65.922V65.8281C6.40039 65.8281 6.871 65.5464 6.96512 65.4525C7.24748 65.3586 7.52985 65.1708 7.62397 65.0769H7.71809L7.81222 65.1708V65.2647L7.52985 65.5464C7.43573 65.6403 7.43573 65.8281 7.43573 66.0159C7.52985 66.2977 7.62397 66.5794 7.71809 66.7672L8.1887 66.5794V66.5794Z" fill="#58595B"/>
<path fill-rule="evenodd" clip-rule="evenodd" d="M7.02362 61.5202C6.77655 61.6024 6.49418 61.6963 6.30594 61.7902L5.83533 61.978C5.83533 61.8841 5.74121 61.7902 5.74121 61.7902C5.64708 61.5085 5.74121 61.3206 5.92945 61.0389C6.02357 60.8511 6.30594 60.5694 6.40006 60.4755C6.40006 60.3816 6.77655 59.9121 6.96479 59.7242C7.00606 59.6419 7.06542 59.5596 7.11908 59.4851C7.1878 59.3898 7.24716 59.3074 7.24716 59.2547C7.24716 59.1608 7.15304 58.8791 7.05891 58.6913C7.00154 58.405 6.94416 58.2584 6.9081 58.1663C6.88501 58.1073 6.87067 58.0706 6.87067 58.0339H6.77655L6.68243 58.1278V58.2217C6.68243 58.2481 6.68985 58.2819 6.69844 58.321C6.72044 58.4211 6.75012 58.5562 6.68243 58.6913C6.5883 58.8791 6.21182 59.4425 6.11769 59.5364C6.11769 59.5752 6.03765 59.6937 5.93039 59.8527C5.77756 60.0791 5.56945 60.3874 5.45884 60.6633C5.36472 60.7572 5.2706 60.945 5.2706 61.1328C4.89411 60.4755 4.4235 60.0999 3.5764 60.3816C3.29404 60.4755 3.01167 60.7572 2.91755 61.0389C2.72931 61.3206 2.72931 61.7902 2.91755 62.3536C3.01167 62.5414 3.29404 63.1049 3.38816 63.4805C3.5764 64.1378 3.67053 64.4195 3.67053 64.4195H3.76465L3.95289 64.3256V64.2317L3.85877 63.95C3.85877 63.7622 3.95289 63.6683 4.14113 63.5744L5.92945 62.9171C6.14696 62.8447 6.37844 62.7584 6.6185 62.669C7.00172 62.5262 7.4068 62.3752 7.81189 62.2597C7.97059 62.1805 7.9955 62.2349 8.05581 62.3664C8.06703 62.3909 8.07948 62.418 8.09425 62.4475L8.18838 62.6353H8.2825L8.47074 62.5414V62.4475C8.47074 62.4006 8.44721 62.3536 8.38838 62.2362C8.32956 62.1189 8.23544 61.931 8.09425 61.6024C7.97716 61.1351 7.89648 60.9221 7.85223 60.8053C7.82533 60.7343 7.81189 60.6988 7.81189 60.6633C7.81189 60.5694 7.71777 60.5694 7.71777 60.5694L7.52952 60.6633V60.7572L7.71777 61.0389C7.71777 61.1328 7.62364 61.2267 7.52952 61.3206C7.48246 61.3676 7.27069 61.438 7.02362 61.5202ZM5.55296 61.6963C5.64708 61.7902 5.64708 61.8841 5.64708 61.978L3.5764 62.5414H3.38816C3.38816 62.5414 3.29404 62.4475 3.29404 62.3536C3.19992 62.0719 3.19992 61.6963 3.29404 61.4146C3.38816 61.2267 3.67053 60.945 3.95289 60.8511C4.23526 60.7572 5.17648 60.6633 5.55296 61.6963Z" fill="#58595B"/>
<path d="M5.17664 57.4705C5.459 57.3766 5.64725 57.2827 5.92961 57.001C6.21198 56.7193 6.3061 56.3437 6.21198 55.968C6.11785 55.5924 5.74137 55.1229 5.17664 55.3107C4.51778 55.4985 4.42366 55.7802 4.32954 56.6254C4.32954 56.9071 4.23542 57.3766 3.95305 57.7522C3.76481 58.034 3.48244 58.2218 3.01183 58.3157C2.63534 58.4096 2.25886 58.3157 1.97649 58.034C1.69413 57.8462 1.50588 57.5644 1.41176 57.0949C1.31764 56.6254 1.31764 56.3437 1.41176 56.1558C1.41176 56.0619 1.41176 56.0619 1.31764 56.0619L1.22352 55.968C1.22352 55.968 1.12939 55.968 1.12939 55.8741C1.12939 55.8741 1.12939 55.7802 1.22352 55.7802C1.31764 55.7802 2.25886 55.4046 2.35298 55.4046H2.4471L2.54122 55.4985V55.5924C2.35298 55.6863 2.07061 55.8741 1.88237 56.1558C1.69413 56.3437 1.69413 56.6254 1.78825 56.9071C1.88237 57.4705 2.4471 57.5644 2.63534 57.4705C2.82359 57.3766 3.10595 57.3766 3.20008 57.0949C3.2942 56.9071 3.38832 56.4376 3.38832 56.1558C3.38832 55.6863 3.48244 55.4046 3.67069 55.029C3.85893 54.7473 4.14129 54.5594 4.6119 54.4655C5.459 54.2777 6.3061 54.6533 6.49434 55.5924C6.58846 56.1558 6.58846 56.5315 6.40022 56.8132C6.40022 56.9071 6.3061 57.001 6.40022 57.001C6.40022 57.001 6.49434 57.0949 6.58846 57.0949C6.58846 57.3766 6.58846 57.3766 6.68259 57.3766C6.68259 57.4705 6.68259 57.4705 6.58846 57.4705C6.49434 57.4705 5.36488 57.6583 5.27076 57.6583H5.17664V57.4705Z" fill="#58595B"/>
<path d="M3.38834 52.3056C3.48246 52.3056 5.08254 52.0239 5.17666 52.0239C5.3649 52.0239 5.3649 51.8361 5.3649 51.7422V51.4605V51.3666H5.55315C5.55315 51.3666 5.64727 51.3666 5.64727 51.4605C5.64727 51.5544 5.64727 51.8361 5.74139 52.4935C5.83551 53.1508 5.92963 53.5264 5.92963 53.5264V53.6203H5.74139L5.64727 53.5264V53.2447C5.64727 53.1508 5.55315 52.963 5.3649 52.963C5.27078 52.963 3.76483 53.1508 3.38834 53.2447L2.91773 53.3386C2.72949 53.3386 1.5059 53.5264 1.41178 53.6203C1.22354 53.6203 1.22354 53.7142 1.22354 53.902L1.31766 54.2777V54.3716H1.12942H1.0353C1.0353 54.2777 1.0353 53.902 0.941173 53.2447C0.847052 52.5874 0.75293 52.3995 0.75293 52.3056C0.75293 52.3056 0.75293 52.2117 0.847052 52.2117H1.0353C1.0353 52.2117 1.12942 52.2117 1.12942 52.3056V52.5874C1.12942 52.7752 1.22354 52.8691 1.31766 52.8691C1.41178 52.8691 2.91773 52.6813 3.01186 52.6813L3.38834 52.3056Z" fill="#58595B"/>
<path d="M0.658853 48.8312V49.019C0.658853 49.2068 0.658853 49.7702 0.752975 50.0519C0.847097 50.2398 1.31771 50.5215 1.60007 50.6154C1.60007 50.6154 1.69419 50.6154 1.69419 50.7093V50.8971H1.60007L0.282366 50.6154C0.188244 50.6154 0.188244 50.5215 0.188244 50.5215C0.188244 50.5215 0.188244 50.4276 0.282366 50.4276C0.376488 50.2398 0.470609 50.1459 0.470609 49.958V48.5494V48.1738C0.470609 47.4226 0.376488 47.1409 0.376488 46.7652C0.376488 46.6713 0.282366 46.3896 0.188244 46.2957C0 46.2957 0 46.2018 0 46.2018C0 46.2018 0 46.1079 0.0941219 46.1079C0.188244 46.1079 1.12946 45.9201 1.41183 45.8262H1.50595L1.60007 45.9201L1.50595 46.014C1.31771 46.1079 0.847097 46.3896 0.752975 46.5774C0.658853 46.7652 0.658853 47.4226 0.658853 47.7043V47.8921L4.42373 47.7043C4.98846 47.7043 5.08258 47.6104 5.08258 47.4226V47.047H5.1767H5.36495C5.36495 47.047 5.45907 47.047 5.45907 47.1409V48.1738C5.45907 48.9251 5.55319 49.2068 5.55319 49.3007C5.55319 49.3007 5.55319 49.3946 5.45907 49.3946H5.27083H5.1767V49.019C5.1767 48.9251 5.08258 48.8312 4.98846 48.8312C4.80022 48.8312 2.63541 48.9251 2.54129 48.9251L0.658853 48.8312V48.8312Z" fill="#58595B"/>
<path fill-rule="evenodd" clip-rule="evenodd" d="M4.04748 44.7932C3.76511 44.6759 3.48274 44.5585 3.38862 44.5115L3.48274 42.6334C3.62393 42.6334 3.90629 42.563 4.18866 42.4925C4.47102 42.4221 4.75339 42.3517 4.89457 42.3517C5.08281 42.2578 5.17694 42.3517 5.17694 42.5395V42.7273C5.17694 42.8212 5.27106 42.8212 5.27106 42.8212H5.36518C5.36518 42.8212 5.4593 42.8212 5.4593 42.7273C5.55342 42.6334 5.55342 42.3517 5.55342 41.7883C5.64755 41.037 5.64755 40.8492 5.64755 40.7553C5.64755 40.6614 5.55342 40.6614 5.55342 40.6614H5.36518C5.27106 40.6614 5.27106 40.7553 5.27106 40.7553V40.9431C5.27106 41.1309 5.17694 41.3187 4.89457 41.4126C4.70633 41.5065 3.38862 41.8822 2.82389 41.9761C2.58858 42.023 2.07091 42.1639 1.55324 42.3047C1.03557 42.4456 0.517903 42.5865 0.282598 42.6334L0.188477 42.7273L0.282598 42.8212C0.37672 42.9151 0.564964 43.3847 0.564964 43.5725C0.564964 43.6664 0.659086 43.6664 0.659086 43.6664H0.753208C0.815956 43.6038 0.878704 43.6246 0.941452 43.6455C0.972826 43.6559 1.0042 43.6664 1.03557 43.6664L2.82389 44.5115C3.00564 44.6022 3.25562 44.722 3.51424 44.846C4.05921 45.1073 4.6425 45.3869 4.70633 45.4506C4.89457 45.5445 4.98869 45.7323 4.98869 45.9201V46.1079H5.08281H5.17694H5.27106V45.3567C5.27106 45.0322 5.316 44.7975 5.34377 44.6524C5.35619 44.5875 5.36518 44.5405 5.36518 44.5115C5.36518 44.4176 5.27106 44.4176 5.27106 44.4176H5.08281V44.5115V44.7932C5.08281 44.9811 4.98869 45.075 4.89457 45.075H4.70633C4.61221 45.028 4.32984 44.9106 4.04748 44.7932ZM2.3732 43.129C2.7976 43.0423 3.20737 42.9586 3.2945 42.9151V44.4176C3.10626 44.3237 1.41206 43.5725 1.31794 43.5725C1.22382 43.5725 1.22382 43.4786 1.22382 43.4786C1.22382 43.3847 1.22382 43.3847 1.31794 43.3847C1.3685 43.3342 1.8807 43.2296 2.3732 43.129Z" fill="#58595B"/>
<path d="M4.32942 39.6284C4.61179 39.6284 4.89415 39.6284 5.27064 39.4406C5.64713 39.2528 5.83537 38.9711 5.92949 38.5954C6.02362 38.2198 5.83537 37.6564 5.27064 37.5625C4.61179 37.4686 4.32942 37.6564 3.95293 38.4076C3.85881 38.5954 3.57645 39.065 3.19996 39.3467C2.82347 39.5345 2.54111 39.6284 2.0705 39.5345C1.69401 39.4406 1.41164 39.2528 1.2234 38.8771C1.03516 38.5954 1.03516 38.2198 1.03516 37.8442C1.12928 37.3746 1.31752 37.0929 1.41164 36.999V36.8112L1.31752 36.7173V36.6234C1.31752 36.6234 1.41164 36.5295 1.41164 36.6234C1.50577 36.6234 2.54111 36.7173 2.54111 36.7173V36.8112V36.9051C2.54111 36.9051 2.54111 36.999 2.44698 36.999C2.25874 36.999 1.97638 37.0929 1.59989 37.2807C1.41164 37.4686 1.2234 37.6564 1.12928 37.9381C1.03516 38.5015 1.41164 38.7832 1.69401 38.8771C1.88225 38.8771 2.16462 38.9711 2.35286 38.7832C2.54111 38.5954 2.82347 38.3137 2.91759 38.032C3.10584 37.6564 3.29408 37.3746 3.67057 37.1868C3.95293 36.999 4.2353 36.9051 4.70591 36.999C5.55301 37.1868 6.11774 37.8442 5.92949 38.7832C6.11774 39.1589 5.92949 39.5345 5.64713 39.7223C5.55301 39.8162 5.55301 39.8162 5.55301 39.9101C5.55301 39.9101 5.55301 40.004 5.64713 40.004V40.1918C5.64713 40.2857 5.55301 40.2857 5.55301 40.2857C5.45889 40.2857 4.32942 39.9101 4.32942 39.9101C4.32942 39.9101 4.2353 39.9101 4.2353 39.8162L4.32942 39.6284V39.6284Z" fill="#58595B"/>
<path d="M5.92978 32.8671C6.21214 32.8671 6.49451 32.961 6.871 32.8671C7.24748 32.7732 7.52985 32.4915 7.62397 32.2098C7.71809 31.8341 7.71809 31.2707 7.15336 31.0829C6.58863 30.8951 6.21214 31.0829 5.74153 31.6463C5.55329 31.8341 5.27092 32.2098 4.80031 32.3976C4.51795 32.5854 4.14146 32.4915 3.76497 32.3976C3.38849 32.3037 3.10612 32.0219 3.012 31.5524C2.91788 31.1768 2.91788 30.8951 3.012 30.5195C3.20024 30.0499 3.38849 29.8621 3.48261 29.7682C3.57673 29.6743 3.57673 29.6743 3.48261 29.5804L3.38849 29.4865V29.3926H3.48261C3.57673 29.3926 4.51795 29.6743 4.61207 29.6743V29.7682V29.8621C4.61207 29.8621 4.61207 29.956 4.51795 29.956C4.3297 29.956 4.04734 29.956 3.67085 30.1438C3.38849 30.2377 3.29436 30.4255 3.10612 30.7073C2.91788 31.2707 3.29436 31.6463 3.48261 31.6463C3.67085 31.7402 3.95322 31.7402 4.14146 31.6463C4.3297 31.5524 4.70619 31.2707 4.80031 30.989C5.08268 30.6134 5.27092 30.4255 5.64741 30.2377C6.30626 30.1438 6.58863 30.1438 7.05924 30.2377C7.90634 30.5195 8.37695 31.2707 8.00046 32.2098C7.81221 32.7732 7.52985 33.0549 7.24748 33.2427L7.15336 33.3366C7.15336 33.3366 7.15336 33.4305 7.24748 33.5244C7.3416 33.6184 7.3416 33.6184 7.24748 33.7123C7.24748 33.8062 7.15336 33.8062 7.15336 33.7123C7.05924 33.7123 6.0239 33.1488 5.92978 33.1488C5.92978 33.1488 5.83565 33.1488 5.92978 33.0549V32.8671V32.8671Z" fill="#58595B"/>
<path d="M5.36507 26.2937L5.27095 26.4815C5.17683 26.6693 4.98858 27.1389 4.89446 27.4206C4.89446 27.7023 5.17683 28.0779 5.36507 28.3596V28.4536L5.27095 28.5475H5.17683L4.14149 27.7023L4.04736 27.6084L4.14149 27.5145C4.32973 27.4206 4.42385 27.3267 4.51797 27.1389C4.70622 26.7632 4.89446 26.5754 5.17683 25.9181L5.36507 25.5425C5.74156 24.8851 5.83568 24.6034 5.9298 24.3217C6.02392 24.2278 6.02392 23.9461 6.02392 23.7582V23.5704H6.11804C6.21217 23.5704 7.05926 23.8522 7.43575 23.9461C7.43575 23.9461 7.52987 23.9461 7.43575 24.04V24.2278H7.34163C7.15339 24.2278 6.58865 24.2278 6.40041 24.4156C6.21217 24.5095 5.9298 25.0729 5.83568 25.3547L5.74156 25.4486L9.12995 27.1389C9.60055 27.4206 9.7888 27.4206 9.88292 27.2328L10.0712 26.8571H10.1653L10.2594 26.9511C10.2594 26.9511 10.3535 26.9511 10.2594 27.045C10.2594 27.1389 10.0712 27.3267 9.7888 27.984C9.50643 28.6414 9.31819 28.9231 9.31819 29.017H9.22407L9.03582 28.9231V28.8292L9.22407 28.4536C9.31819 28.3596 9.22407 28.1718 9.12995 28.1718C8.9417 28.0779 7.05926 27.1389 6.96514 27.045L5.36507 26.2937V26.2937Z" fill="#58595B"/>
<path d="M7.81206 22.3497C7.62381 22.2558 7.52969 22.1619 7.34145 22.3497L7.24733 22.6314H7.1532L7.05908 22.5375V22.4436C7.05908 22.3497 7.34145 22.1619 7.71794 21.5984C7.90618 21.035 8.09442 20.7533 8.18854 20.7533H8.28267H8.37679V20.8472L8.18854 21.1289C8.09442 21.3167 8.09442 21.5045 8.18854 21.5984C8.28267 21.6923 8.56503 21.8802 8.94152 22.1619L9.69449 22.6314C9.97686 22.8192 10.4475 23.1009 10.6357 23.1948C10.9181 23.3827 11.2004 23.4766 11.4828 23.4766C11.8593 23.4766 12.2358 23.1948 12.424 22.9131C12.6123 22.6314 12.7064 22.2558 12.7064 21.9741C12.6123 21.5984 12.424 21.2228 11.9534 20.9411L10.9181 20.1898C10.4475 19.9081 9.88274 19.5325 9.78862 19.5325C9.60037 19.4386 9.41213 19.4386 9.41213 19.6264L9.12976 19.8142H9.03564L8.8474 19.7203V19.6264C8.8474 19.5325 9.12976 19.3447 9.31801 18.9691C9.60037 18.5934 9.69449 18.4056 9.69449 18.4056C9.69449 18.3117 9.78862 18.4056 9.78862 18.4056L9.88274 18.4995C9.88274 18.4995 9.97686 18.4995 9.88274 18.5934L9.69449 18.7813C9.50625 18.9691 9.6945 19.1569 9.78862 19.1569C9.88274 19.2508 10.6357 19.8142 10.7298 19.8142C10.824 19.9081 11.8593 20.5655 12.0475 20.7533C12.5182 21.1289 12.8005 21.5045 12.8005 21.9741C12.8946 22.3497 12.7064 22.8192 12.424 23.2887C12.2358 23.5705 11.9534 23.8522 11.6711 24.04C11.2946 24.3217 10.9181 24.3217 10.4475 24.2278C10.1651 24.1339 9.69449 23.8522 8.94152 23.3827L7.81206 22.3497V22.3497Z" fill="#58595B"/>
<path fill-rule="evenodd" clip-rule="evenodd" d="M11.8593 17.5135C12.0711 17.7013 12.2829 17.8891 12.3299 17.9361L12.8005 18.3117L14.4006 19.9081C14.4947 20.002 14.4947 20.0959 14.4006 20.1898L14.1183 20.4715V20.5654L14.3065 20.7532H14.4006C14.4947 20.6593 14.683 20.4715 15.0595 20.002C15.2626 19.8669 15.563 19.5375 15.7858 19.2933C15.8727 19.198 15.9478 19.1157 16.0007 19.0629C16.0385 19.0127 16.0846 18.9557 16.1361 18.8923C16.4693 18.4813 17.0234 17.7979 16.9419 16.9031C16.8478 16.1518 16.5654 15.6823 16.0007 15.1189C15.3418 14.5554 14.683 14.3676 14.1183 14.4615C13.2712 14.5554 12.7064 15.1189 12.0476 15.7762C11.963 15.8606 11.8783 15.964 11.7852 16.0779C11.6711 16.2173 11.5442 16.3724 11.3887 16.5275C11.2449 16.6709 11.1148 16.787 11.0037 16.8862C10.824 17.0466 10.6939 17.1626 10.6357 17.2787V17.3726L10.7299 17.4665H10.824L11.1064 17.1848C11.2005 16.997 11.2946 16.997 11.3887 17.0909C11.4358 17.1379 11.6476 17.3257 11.8593 17.5135ZM14.7771 18.8751C14.4006 18.5934 13.5535 17.8422 13.4594 17.7482L13.177 17.4665L12.2358 16.5275C12.0476 16.4336 12.0476 16.3397 12.0476 16.2458C12.0946 16.1988 12.1417 16.1284 12.1888 16.0579C12.2358 15.9875 12.2829 15.9171 12.3299 15.8701C12.7064 15.4006 13.2712 15.1189 13.8359 15.1189C14.3065 15.2128 14.9653 15.4006 15.3418 15.7762C15.8124 16.1518 16.0948 16.7153 16.1889 17.1848C16.2831 17.8422 16.0948 18.4056 15.7183 18.7812C15.5301 18.969 15.3418 19.0629 15.1536 19.0629C14.9653 19.0629 14.8712 18.969 14.7771 18.8751Z" fill="#58595B"/>
<path d="M18.2598 13.4286C18.2598 13.5225 19.3893 14.6494 19.4834 14.7433C19.6717 14.9311 19.7658 14.8372 19.8599 14.7433L20.0481 14.5555H20.1423L20.2364 14.6494V14.7433C20.1423 14.8372 19.954 14.9311 19.4834 15.4006C18.9187 15.8701 18.7304 16.058 18.7304 16.1519H18.6363L18.354 16.058V15.964L18.5422 15.7762C18.6363 15.6823 18.7304 15.5884 18.6363 15.4006C18.5422 15.3067 17.601 14.1798 17.3186 13.8981L17.0362 13.5225C16.9421 13.4286 16.095 12.4895 16.0009 12.3956C15.9068 12.3017 15.8127 12.3017 15.6244 12.3956L15.3421 12.6773H15.2479L15.1538 12.5834V12.4895C15.2479 12.3956 15.5303 12.2078 16.0009 11.7383C16.4715 11.2687 16.6598 11.1748 16.7539 11.0809H16.848L16.9421 11.1748V11.2687L16.7539 11.4566C16.6598 11.5505 16.5656 11.6444 16.6598 11.7383C16.6598 11.8322 17.6951 12.9591 17.7892 13.053L18.2598 13.4286V13.4286Z" fill="#58595B"/>
<path fill-rule="evenodd" clip-rule="evenodd" d="M23.8128 9.01493C23.2481 8.26369 22.4951 7.98197 21.8363 7.88806C21.0833 7.88806 20.6127 8.16978 20.1421 8.4515C19.6715 8.82712 19.1067 9.39056 19.0126 10.3296C18.9185 11.1748 19.2008 11.7382 19.4832 12.1138C20.1421 12.959 20.9892 13.2407 21.5539 13.2407C22.2127 13.1468 22.7775 12.959 23.154 12.6773C24.0011 12.0199 24.2834 11.3626 24.2834 10.6113C24.2834 9.954 24.0952 9.48447 23.8128 9.01493ZM20.1421 11.3626C19.7656 10.8931 19.5773 10.1418 19.6715 9.57837C19.8011 9.12567 20.02 8.89566 20.1438 8.76565C20.1997 8.70688 20.2362 8.66854 20.2362 8.63931C20.8009 8.26369 22.2127 8.4515 23.0598 9.67228C23.4363 10.1418 24.0952 11.5504 22.9657 12.3956C22.4951 12.7712 21.1774 12.8651 20.1421 11.3626Z" fill="#58595B"/>
<path fill-rule="evenodd" clip-rule="evenodd" d="M27.107 9.48455C27.0129 9.39065 26.6364 8.73331 26.4482 8.35768L26.354 7.88815C26.4482 7.88815 26.5423 7.79424 26.5423 7.79424C26.7552 7.65263 26.9146 7.72458 27.1012 7.8088C27.1621 7.83627 27.2258 7.86505 27.2953 7.88815L27.2953 7.88815C27.4835 7.98206 27.86 8.16987 27.9541 8.26377C28.0482 8.35768 28.5188 8.73331 28.7071 8.82721L28.7071 8.82721C28.8953 8.92112 29.0836 9.01502 29.1777 9.01502L29.7424 8.73331C29.9777 8.6394 30.1189 8.56897 30.213 8.52202C30.3072 8.47506 30.3542 8.45159 30.4013 8.45159V8.35768L30.3072 8.26377H30.213C30.1189 8.35768 29.9307 8.35768 29.7424 8.35768C29.6896 8.33131 29.5996 8.28274 29.4955 8.2265C29.2287 8.08245 28.8689 7.88815 28.8012 7.88815C28.7071 7.88815 27.9541 7.51253 27.86 7.41862C27.6718 7.32471 27.4835 7.32471 27.2953 7.32471C27.9541 6.85518 28.2365 6.29175 27.5776 5.5405C27.4835 5.25878 27.2011 5.07097 26.9188 4.97706C26.5423 4.88316 26.0717 4.88316 25.6011 5.16487L24.4716 5.72831C23.9069 6.01003 23.6245 6.10393 23.6245 6.10393V6.19784L23.7186 6.38565H23.8128L24.0951 6.29175C24.1892 6.19784 24.3775 6.29175 24.4716 6.47956L25.3187 8.16987C25.6952 8.73331 25.9776 9.29674 26.2599 9.95408C26.354 10.048 26.2599 10.1419 26.1658 10.2358L25.9776 10.3297V10.4236L26.0717 10.6114H26.1658C26.2599 10.5175 26.354 10.4236 27.0129 10.1419C27.3423 10.001 27.5306 9.90713 27.6482 9.84844C27.7659 9.78975 27.8129 9.76627 27.86 9.76627V9.67237L27.7659 9.48455H27.6718L27.3894 9.67237C27.2953 9.67237 27.2011 9.57846 27.107 9.48455ZM26.4011 7.74729C26.354 7.77077 26.307 7.79424 26.2599 7.79424L25.3187 5.91612V5.72831C25.3187 5.72831 25.4128 5.6344 25.6011 5.6344C25.8834 5.44659 26.2599 5.35269 26.5423 5.44659C26.8247 5.5405 27.0129 5.72831 27.2011 6.01003C27.2953 6.29175 27.4835 7.23081 26.5423 7.70034C26.4952 7.70034 26.4482 7.72381 26.4011 7.74729Z" fill="#58595B"/>
<path d="M29.6484 4.03798C29.5542 3.85017 29.4601 3.75626 29.2719 3.85017L28.9895 3.94407H28.8954L28.8013 3.75626C28.8013 3.75626 28.8013 3.66236 28.8954 3.66236C28.9895 3.66236 29.2719 3.56845 29.9307 3.28673C30.4955 3.09892 30.7778 2.91111 30.872 2.91111H30.9661L31.0602 3.19283V3.28673L30.7778 3.38064C30.5896 3.47454 30.4955 3.56845 30.5896 3.75626C30.5896 3.85017 30.7778 4.22579 30.872 4.60142L31.0602 5.35267C31.1543 5.72829 31.3426 6.19782 31.4367 6.38563C31.5308 6.66735 31.719 6.94907 32.0014 7.13688C32.3779 7.32469 32.7544 7.32469 33.0368 7.23079C33.3191 7.13688 33.6956 6.85516 33.7897 6.57344C33.978 6.19782 33.978 5.8222 33.7897 5.35267L33.4132 4.13189C33.1309 3.56845 32.9426 3.00501 32.8485 2.91111C32.7544 2.72329 32.6603 2.62939 32.472 2.72329L32.1897 2.8172H32.0955L32.0014 2.62939V2.53548C32.0955 2.53548 32.3779 2.44158 32.8485 2.25376C33.225 2.06595 33.5074 1.97205 33.5074 1.97205H33.6015L33.6956 2.15986V2.25376L33.4132 2.34767C33.1309 2.44158 33.225 2.62939 33.225 2.72329C33.225 2.8172 33.6015 3.75626 33.6015 3.85017C33.6015 3.94407 34.0721 5.07095 34.0721 5.35267C34.2603 5.9161 34.1662 6.38563 33.978 6.85516C33.8839 7.13688 33.5074 7.4186 33.0368 7.60641C32.7544 7.70032 32.2838 7.79422 32.0014 7.79422C31.5308 7.79422 31.1543 7.60641 30.872 7.23079C30.6837 6.94907 30.4955 6.57344 30.2131 5.63438L29.6484 4.03798V4.03798Z" fill="#58595B"/>
<path d="M40.284 3.09889C40.284 2.91107 39.9075 1.22077 39.9075 1.12686C39.9075 1.22077 39.3428 3.38061 39.3428 3.56842C39.2487 3.85014 38.8722 5.63435 38.8722 5.72826C38.8722 5.82216 38.7781 5.91607 38.7781 5.91607C38.7781 5.91607 38.6839 5.91607 38.6839 5.82216C38.6839 5.82216 37.3662 3.75623 37.2721 3.66232C37.0839 3.38061 36.1426 1.97201 36.0485 1.87811C36.0485 1.97201 36.3309 3.75623 36.3309 3.85014C36.3309 3.94404 36.5191 5.07091 36.7074 5.54045C36.8015 5.82216 36.8956 6.10388 37.178 6.10388L37.4604 6.00998H37.5545V6.19779C37.5545 6.19779 37.5545 6.29169 37.4604 6.29169C37.3662 6.29169 37.178 6.29169 36.7074 6.3856C36.1426 6.47951 35.8603 6.57341 35.7662 6.57341C35.672 6.57341 35.672 6.57341 35.672 6.47951V6.29169V6.19779L35.9544 6.10388C36.1426 6.10388 36.2368 5.82216 36.2368 5.54045C36.2368 5.07091 35.9544 3.38061 35.9544 3.19279L35.7662 1.97201C35.7662 1.6903 35.672 1.59639 35.3897 1.59639L35.1073 1.6903H35.0132V1.50248L35.1073 1.40858C35.2014 1.40858 35.3897 1.40858 36.0485 1.22077C36.425 1.12686 36.6133 1.12686 36.6133 1.12686C36.7074 1.12686 36.7074 1.12686 36.8015 1.22077C37.178 1.7842 38.5898 3.94404 38.8722 4.50748C38.8722 4.41357 39.1545 3.09889 39.2487 2.72326C39.3428 2.44154 39.7193 0.845141 39.7193 0.751235C39.7193 0.657329 39.8134 0.657329 40.0016 0.657329C41.037 0.469516 41.2252 0.37561 41.3194 0.37561L41.4135 0.469516V0.657329V0.751235L41.1311 0.845141C40.9429 0.845141 40.9429 1.03295 40.9429 1.12686C40.9429 1.31467 41.2252 2.62936 41.2252 2.81717L41.3194 3.2867C41.4135 3.66232 41.6017 4.69529 41.6017 4.7892C41.6958 5.07092 41.6958 5.16482 41.8841 5.16482L42.2606 5.07092H42.3547V5.25873V5.35263C42.2606 5.35263 41.9782 5.44654 41.3194 5.54045C40.4723 5.63435 40.1899 5.72826 40.0958 5.72826C40.0958 5.72826 40.0016 5.72826 40.0016 5.63435V5.44654V5.35263H40.4723C40.5664 5.35263 40.6605 5.25873 40.6605 5.07092C40.6605 4.97701 40.4723 4.03795 40.3781 3.47451L40.284 3.09889V3.09889Z" fill="#58595B"/>
<path d="M50.6375 2.81718C50.6375 2.62937 50.7316 0.845155 50.7316 0.845155C50.6375 0.939061 49.6963 2.91109 49.6022 3.0989L48.661 4.97702C48.661 5.07093 48.5668 5.16483 48.4727 5.16483C48.4727 5.16483 48.3786 5.16484 48.3786 5.07093C48.3786 5.07093 47.5315 2.81718 47.5315 2.72328C47.4374 2.34765 46.8726 0.751249 46.7785 0.657343C46.7785 0.751249 46.6844 2.53546 46.6844 2.62937C46.6844 2.72328 46.5903 3.94406 46.5903 4.31968C46.5903 4.6014 46.6844 4.88312 46.8726 4.88312H47.155C47.155 4.88312 47.2491 4.88312 47.2491 4.97702V5.16483C47.2491 5.16483 47.2491 5.25874 47.155 5.25874C47.0609 5.25874 46.8726 5.25874 46.402 5.16483H45.4608C45.3667 5.16483 45.3667 5.16484 45.3667 5.07093V4.88312H45.6491C45.9314 4.88312 45.9314 4.6014 46.0256 4.41359C46.2138 3.85015 46.3079 2.15984 46.3079 1.97203L46.402 0.751249C46.402 0.46953 46.402 0.375624 46.1197 0.281718H45.8373C45.8373 0.281718 45.7432 0.281718 45.7432 0.187812V0H45.8373C45.9314 0 46.1197 0 46.8726 0.0939061H47.5315C47.6256 0.0939061 47.6256 0.0939061 47.7197 0.187812C47.908 0.845155 48.8492 3.19281 49.0375 3.85015C49.1316 3.75624 49.6963 2.62937 49.8846 2.15984C49.9787 1.87812 50.7316 0.46953 50.7316 0.281718C50.7316 0.187812 50.8258 0.187812 51.014 0.187812C52.0494 0.281718 52.2376 0.187812 52.3317 0.187812V0.281718V0.46953C52.3317 0.46953 52.3317 0.563437 52.2376 0.563437H51.9552C51.767 0.563437 51.767 0.657343 51.767 0.845155C51.767 1.03297 51.6729 2.44156 51.6729 2.62937V3.0989C51.6729 3.47453 51.5787 4.50749 51.5787 4.6953C51.5787 4.97702 51.6729 5.07093 51.767 5.07093H52.1435V5.16483V5.35265C52.1435 5.35265 52.1435 5.44655 52.0494 5.44655C51.9552 5.44655 51.6729 5.44655 51.014 5.35265H49.9787C49.9787 5.35265 49.8846 5.35265 49.8846 5.25874V5.07093C49.8846 5.07093 49.8846 4.97702 49.9787 4.97702H50.4493C50.5434 4.97702 50.6375 4.97702 50.6375 4.6953C50.6375 4.6014 50.7316 3.66234 50.7316 3.0989L50.6375 2.81718V2.81718Z" fill="#58595B"/>
<path d="M54.0261 1.40859C54.1202 1.22077 54.0261 1.03296 53.8379 1.03296L53.5555 0.939055C53.5555 0.939055 53.4614 0.939055 53.5555 0.845149V0.657337C53.5555 0.657337 53.5555 0.563431 53.6496 0.657337C53.7437 0.657337 54.0261 0.751243 54.685 0.939055C55.2497 1.03296 55.6262 1.03296 55.7203 1.03296C55.7203 1.03296 55.8144 1.03296 55.7203 1.12687V1.31468C55.7203 1.31468 55.7203 1.40859 55.6262 1.31468L55.3438 1.22077C55.1556 1.22077 54.9673 1.31468 54.9673 1.40859C54.9673 1.50249 54.8732 1.87812 54.7791 2.25374L54.5908 3.1928C54.4967 3.56843 54.4026 4.03796 54.4026 4.22577C54.4026 4.50749 54.3085 4.88311 54.4967 5.16483C54.5908 5.54045 54.9673 5.72827 55.2497 5.82217C55.5321 5.91608 56.0027 5.82217 56.285 5.72827C56.5674 5.54045 56.8498 5.16483 56.9439 4.60139L57.2263 3.38061C57.3204 2.81718 57.4145 2.25374 57.4145 2.06593C57.4145 1.87812 57.3204 1.6903 57.2263 1.6903L56.9439 1.5964C56.9439 1.5964 56.8498 1.5964 56.9439 1.50249V1.31468C56.9439 1.31468 56.9439 1.22077 57.038 1.31468C57.1321 1.31468 57.4145 1.40859 57.8851 1.50249C58.3557 1.5964 58.544 1.5964 58.6381 1.5964C58.7322 1.5964 58.7322 1.5964 58.7322 1.6903V1.87812C58.7322 1.87812 58.7322 1.97202 58.6381 1.97202L58.3557 1.87812C58.0734 1.78421 58.0734 1.97202 57.9792 2.06593C57.9792 2.15983 57.791 3.0989 57.6969 3.1928C57.6969 3.28671 57.4145 4.50749 57.3204 4.7892C57.1321 5.35264 56.9439 5.72827 56.4733 6.00998C56.0968 6.1978 55.6262 6.2917 55.1556 6.1978C54.7791 6.10389 54.4026 6.00998 54.2144 5.82217C53.8379 5.54045 53.6496 5.16483 53.5555 4.6953C53.5555 4.41358 53.5555 3.94405 53.7437 3.00499L54.0261 1.40859V1.40859Z" fill="#58595B"/>
<path d="M61.6499 3.00505L61.4616 2.91114C61.2734 2.81723 60.8028 2.62942 60.4263 2.62942C60.1439 2.62942 59.7674 3.00505 59.5792 3.19286H59.4851L59.391 3.09895V3.00505L60.1439 1.97208C60.1439 1.87817 60.2381 1.87817 60.2381 1.87817L60.3322 1.97208C60.4263 2.15989 60.5204 2.2538 60.7087 2.3477C61.0851 2.44161 61.3675 2.62942 61.9322 2.81723L62.3087 2.91114C63.0617 3.19286 63.3441 3.28677 63.6264 3.38067H64.1912H64.3794V3.47458C64.3794 3.56848 64.1912 4.50754 64.097 4.78926C64.097 4.78926 64.097 4.88317 64.0029 4.88317H63.8147V4.78926C63.8147 4.60145 63.7206 4.03801 63.5323 3.8502C63.3441 3.66239 62.7793 3.47458 62.5911 3.38067L62.4029 3.28677L61.1793 6.8552C60.991 7.32473 60.991 7.51254 61.1793 7.60645L61.5558 7.70035V7.79426L61.4616 7.88816C61.4616 7.88816 61.4616 7.98207 61.3675 7.88816C61.2734 7.88816 61.0851 7.79426 60.4263 7.51254C59.7674 7.23082 59.4851 7.23082 59.391 7.13692C59.391 7.13692 59.2968 7.13691 59.391 7.04301L59.4851 6.8552H59.5792L59.9557 6.9491C60.0498 7.04301 60.2381 6.9491 60.2381 6.8552C60.2381 6.76129 60.991 4.78926 61.0851 4.60145L61.6499 3.00505V3.00505Z" fill="#58595B"/>
<path d="M65.8853 7.32464C65.8853 7.41855 65.1323 8.82714 65.1323 8.92105C65.0382 9.10886 65.1323 9.20276 65.3205 9.29667L65.6029 9.39058V9.48448L65.5088 9.6723H65.4147C65.3205 9.6723 65.1323 9.48448 64.4734 9.20276C63.8146 8.92105 63.5322 8.82714 63.5322 8.73323V8.63933V8.54542H63.6263L63.9087 8.63933C64.0028 8.73323 64.1911 8.73323 64.2852 8.63933C64.3793 8.54542 65.0382 7.23074 65.1323 6.85511L65.3205 6.38558C65.4147 6.19777 65.8853 5.0709 65.9794 4.97699C66.0735 4.78918 65.9794 4.69527 65.7912 4.60137L65.4147 4.41355V4.31965L65.5088 4.13184H65.6029C65.697 4.13184 65.9794 4.31965 66.6382 4.60137C67.203 4.88308 67.4853 4.97699 67.5795 4.97699V5.0709L67.4853 5.25871H67.3912L67.1089 5.1648C67.0147 5.0709 66.8265 5.0709 66.8265 5.25871C66.8265 5.35262 66.0735 6.6673 66.0735 6.76121L65.8853 7.32464V7.32464Z" fill="#58595B"/>
<path d="M68.7088 7.79421C68.0499 8.82717 67.5793 9.67233 67.4852 9.86014C67.2969 10.1419 67.2969 10.3297 67.4852 10.5175L67.6734 10.6114C67.7676 10.6114 67.6734 10.7053 67.6734 10.7053L67.5793 10.7992C67.5793 10.7992 67.5793 10.8931 67.4852 10.7992C67.3911 10.7992 67.1087 10.5175 66.8263 10.4236C66.6381 10.3297 66.2616 10.048 66.1675 10.048V9.95405L66.2616 9.76623H66.3557L66.544 9.86014C66.7322 9.95405 66.8263 9.86014 67.1087 9.48452C67.2028 9.39061 67.7676 8.54545 68.3323 7.60639L68.8029 6.85514C68.9911 6.47952 68.9911 6.1039 68.7088 5.91608L68.5205 5.82218V5.72827H68.7088H68.8029C68.8029 5.72827 68.897 5.82218 68.9911 5.82218C69.0853 5.91608 69.2735 6.00999 69.5559 6.1978C69.65 6.29171 69.7441 6.29171 69.8382 6.38561C69.9324 6.47952 69.9324 6.47952 70.0265 6.47952C70.1206 6.47952 70.1206 6.57343 70.1206 6.66733C70.1206 6.76124 70.403 8.92108 70.403 9.2028C70.403 9.39061 70.6853 11.0809 70.6853 11.2687L71.0618 10.6114C71.3442 10.048 71.5324 9.76623 71.7207 9.48452C71.8148 9.2967 72.1913 8.63936 72.1913 8.54545C72.2854 8.35764 72.1913 8.16983 72.003 8.07592L71.8148 7.98202V7.88811L71.9089 7.79421C71.9089 7.79421 71.9089 7.7003 72.003 7.79421C72.0972 7.79421 72.2854 7.98202 72.6619 8.26374C73.0384 8.45155 73.1325 8.54545 73.2266 8.63936C73.3207 8.63936 73.2266 8.73327 73.2266 8.73327L73.1325 8.82717C73.1325 8.82717 73.0384 8.92108 73.0384 8.82717L72.9443 8.54545C72.8501 8.45155 72.6619 8.54545 72.5678 8.73327C72.2854 9.10889 71.6266 10.048 71.2501 10.7053L70.3088 12.3017C70.2147 12.3956 70.2147 12.4895 70.1206 12.3956C70.0265 12.3017 70.0265 12.2078 69.9324 12.2078C69.9324 12.1139 69.8382 11.5504 69.7441 10.8931C69.65 10.1419 69.5559 9.2967 69.5559 9.10889C69.5559 9.01498 69.2735 7.23077 69.2735 7.04296L68.7088 7.79421V7.79421Z" fill="#58595B"/>
<path d="M73.7918 12.5835C73.5094 12.8652 73.1329 13.4286 73.0388 13.5225C72.8506 13.8042 72.8506 13.9921 72.9447 14.086L73.3212 14.4616C73.4153 14.5555 73.6977 14.7433 73.7918 14.8372C73.8859 14.9311 74.1683 15.025 74.3565 15.025C74.5448 15.025 75.1095 14.9311 75.2977 14.8372H75.3919V14.9311V15.025L74.4506 15.5885H74.2624C74.2624 15.5885 74.0741 15.4946 73.7918 15.2128C73.4153 14.9311 72.8506 14.4616 72.0035 13.7103C71.8152 13.5225 71.627 13.4286 71.5329 13.3347C71.4387 13.2408 71.3446 13.2408 71.2505 13.1469V13.053L71.3446 12.9591H71.4387L71.627 13.1469C71.9093 13.3347 71.9093 13.3347 72.0976 13.1469L73.6035 11.3627C73.98 10.8932 74.5448 10.2358 74.5448 10.1419C74.6389 9.9541 74.6389 9.86019 74.4506 9.76628L74.3565 9.57847V9.48457L74.4506 9.29675H74.5448C74.6389 9.39066 74.8271 9.57847 75.2977 9.9541L75.486 10.048C75.7683 10.2358 76.9919 11.2688 77.1802 11.4566L77.3684 11.6444V11.7383C77.3684 11.8322 76.8978 12.7713 76.8978 12.7713C76.8978 12.7713 76.8978 12.8652 76.8037 12.7713H76.7096V12.6774C76.7096 12.5835 76.7096 11.7383 76.6154 11.5505C76.5213 11.3627 76.4272 11.1749 76.3331 11.081L75.486 10.4236L74.1683 12.02C74.3565 12.1139 74.733 12.4896 74.8271 12.4896C74.9212 12.5835 75.1095 12.5835 75.2036 12.4896C75.2977 12.4896 75.486 12.3957 75.5801 12.3017H75.6742L75.7683 12.3957V12.4896C75.6742 12.5835 75.3919 12.9591 75.2977 13.053C75.1095 13.2408 74.9212 13.5225 74.8271 13.7103H74.733L74.6389 13.6164V13.5225C74.733 13.4286 74.733 13.2408 74.733 13.1469C74.733 12.9591 74.733 12.8652 74.6389 12.7713C74.4506 12.5835 74.1683 12.3957 74.0741 12.2078L73.7918 12.5835V12.5835Z" fill="#58595B"/>
<path d="M78.0273 14.8372C77.1802 15.6824 76.4272 16.3397 76.3331 16.5275C76.0507 16.8092 76.0507 16.997 76.239 17.1849L76.3331 17.2788V17.3727L76.239 17.4666H76.1448C76.0507 17.3727 75.8625 17.091 75.6742 16.9031C75.5801 16.8092 75.2036 16.4336 75.2036 16.3397V16.2458L75.2977 16.1519H75.3919L75.5801 16.3397C75.6742 16.4336 75.8625 16.4336 76.239 16.1519C76.3331 16.058 77.0861 15.4006 77.9331 14.6494L78.592 13.9921C78.8744 13.7103 78.9685 13.3347 78.7802 13.053L78.592 12.8652V12.7713L78.6861 12.6774H78.7802C78.7802 12.6774 78.8744 12.7713 78.8744 12.8652C78.9685 12.9591 79.0626 13.1469 79.2509 13.3347L79.4391 13.5225L79.5332 13.6164C79.6273 13.7103 79.6273 13.7103 79.6273 13.8042C79.6273 13.8981 79.345 16.058 79.2509 16.3397C79.2509 16.5275 78.9685 18.2178 78.9685 18.4056L79.5332 17.9361C80.0038 17.4666 80.2862 17.2788 80.4744 16.997L81.2274 16.2458C81.3215 16.058 81.3215 15.8702 81.1333 15.7763L80.945 15.5885V15.4946L81.0392 15.4006H81.1333C81.2274 15.4946 81.3215 15.6824 81.698 15.9641L82.1686 16.4336V16.5275L82.0745 16.6214H81.9804L81.8863 16.7153C81.7921 16.6214 81.698 16.6214 81.4157 16.8092C81.0392 17.091 80.098 17.8422 79.6273 18.3117L78.3096 19.6264C78.2155 19.7203 78.1214 19.7203 78.1214 19.7203C78.0273 19.6264 78.0273 19.5325 78.0273 19.4386C78.0273 19.3447 78.1214 18.7813 78.2155 18.1239C78.3096 17.3727 78.4038 16.5275 78.4979 16.3397C78.4979 16.2458 78.7802 14.4616 78.7802 14.2738L78.0273 14.8372V14.8372Z" fill="#58595B"/>
<path d="M80.6624 20.1898V20.1898C80.4742 20.3776 80.2859 20.5654 80.1918 20.941C80.0036 21.3167 80.0036 21.6923 80.2859 21.974C80.4742 22.2557 81.0389 22.5374 81.5095 22.2557C82.0743 21.8801 82.0743 21.5045 81.7919 20.7532C81.6978 20.5654 81.6037 20.002 81.6978 19.5325C81.6978 19.2507 81.9801 18.8751 82.2625 18.6873C82.5449 18.4995 82.9214 18.4056 83.392 18.4995C83.7685 18.5934 84.0508 18.7812 84.2391 19.0629C84.5214 19.4385 84.6156 19.7203 84.6156 19.9081C84.6156 20.002 84.7097 20.002 84.7097 20.002H84.8038C84.8038 20.002 84.8979 20.002 84.8979 20.0959C84.8979 20.0959 84.8979 20.1898 84.8038 20.1898C84.7097 20.2837 83.9567 20.941 83.9567 20.941H83.8626H83.7685V20.8471C83.8626 20.6593 84.0508 20.3776 84.1449 20.0959C84.2391 19.8142 84.1449 19.6264 83.9567 19.3446C83.5802 18.8751 83.1096 18.969 82.9214 19.1568C82.7331 19.3446 82.5449 19.4385 82.5449 19.7203C82.5449 20.002 82.639 20.3776 82.7331 20.6593C82.8272 21.035 82.9214 21.4106 82.9214 21.7862C82.8272 22.0679 82.7331 22.3496 82.3566 22.6314C81.6978 23.1009 80.7566 23.1009 80.1918 22.3496C79.8153 21.8801 79.7212 21.5045 79.7212 21.2228V21.035H79.533C79.4388 21.035 79.4388 21.035 79.3447 20.941V20.8471C79.4388 20.8471 80.3801 20.1898 80.4742 20.1898H80.5683H80.6624V20.1898Z" fill="#58595B"/>
<path d="M84.2393 24.3217C84.1452 24.3217 82.8275 25.1669 82.7334 25.2608C82.5451 25.3547 82.5451 25.4486 82.6392 25.6364L82.8275 25.9181V26.012L82.6392 26.1059H82.5451C82.5451 26.012 82.3569 25.8242 82.0745 25.2608C81.698 24.6973 81.5098 24.4156 81.5098 24.3217V24.2278L81.698 24.1339H81.7921L81.9804 24.4156C82.0745 24.5095 82.1686 24.6973 82.3569 24.6034C82.451 24.6034 83.7687 23.7583 84.0511 23.5705L84.4275 23.2887C84.6158 23.1948 85.6511 22.5375 85.7453 22.4436C85.8394 22.3497 85.9335 22.2558 85.8394 22.068L85.557 21.6923V21.5984L85.7453 21.5045H85.8394C85.8394 21.5984 86.0276 21.8801 86.4041 22.4436C86.7806 23.007 86.8747 23.1948 86.9688 23.2887V23.3826L86.6865 23.5705H86.5923L86.4982 23.3826C86.4041 23.2887 86.31 23.1948 86.2159 23.2887C86.1217 23.2887 84.804 24.1339 84.7099 24.1339L84.2393 24.3217V24.3217Z" fill="#58595B"/>
<path d="M84.7097 26.4815V26.4815C84.5214 26.6693 84.2391 26.8571 84.0508 27.1389C83.8626 27.5145 83.8626 27.8901 84.0508 28.1718C84.2391 28.5474 84.7097 28.9231 85.1803 28.6414C85.745 28.3596 85.8391 27.984 85.745 27.2328C85.745 26.951 85.6509 26.4815 85.8391 26.012C85.9333 25.7303 86.2156 25.4485 86.5921 25.2607C86.9686 25.0729 87.3451 25.0729 87.7216 25.2607C88.0981 25.4485 88.2863 25.6364 88.4746 26.012C88.6628 26.3876 88.6628 26.7632 88.7569 26.8571C88.7569 26.951 88.7569 26.951 88.851 26.951H88.9452C88.9452 26.951 89.0393 26.951 89.0393 27.0449C89.0393 27.0449 89.0393 27.1389 88.9452 27.1389C88.851 27.2328 88.0039 27.7023 87.9098 27.7962H87.8157L87.7216 27.7023V27.6084C87.9098 27.4206 88.0981 27.2328 88.1922 26.8571C88.2863 26.5754 88.2863 26.3876 88.0981 26.1059C87.8157 25.6364 87.3451 25.6364 87.1568 25.7303C86.9686 25.8242 86.7804 25.9181 86.6862 26.1998C86.5921 26.4815 86.5921 26.8571 86.6862 27.1389C86.7804 27.5145 86.7804 27.8901 86.5921 28.2657C86.498 28.5474 86.3098 28.8292 85.8391 29.017C85.0862 29.3926 84.1449 29.2048 83.7685 28.3596C83.4861 27.8901 83.4861 27.5145 83.5802 27.1389V26.951H83.392C83.2979 26.951 83.2979 26.951 83.2979 26.8571C83.2979 26.7632 83.2979 26.7632 83.392 26.7632C83.4861 26.7632 84.5214 26.2937 84.6156 26.2937H84.7097V26.4815V26.4815Z" fill="#58595B"/>
<path d="M88.1923 33.8061C87.8158 33.9001 87.1569 34.0879 87.0628 34.1818C86.6863 34.2757 86.5922 34.4635 86.5922 34.6513C86.5922 34.7452 86.5922 34.933 86.6863 35.2147C86.6863 35.3086 86.7805 35.6843 86.8746 35.7782C86.9687 35.8721 87.0628 36.1538 87.2511 36.2477C87.4393 36.3416 87.9099 36.6233 88.1923 36.6233C88.1923 36.6233 88.2864 36.6233 88.2864 36.7172V36.8111H88.1923H87.0628C86.9687 36.8111 86.9687 36.8111 86.8746 36.7172C86.8746 36.7172 86.8746 36.5294 86.6863 36.1538C86.5922 35.6843 86.404 35.0269 86.0275 33.9001C85.9334 33.6183 85.9334 33.4305 85.8392 33.3366C85.8392 33.2427 85.7451 33.1488 85.7451 33.0549V32.961L85.9334 32.8671C85.9334 32.8671 86.0275 32.8671 86.0275 32.961L86.1216 33.1488C86.2157 33.4305 86.2157 33.4305 86.4981 33.4305L88.757 32.7732C89.3217 32.5854 90.1688 32.3976 90.263 32.3037C90.4512 32.2097 90.4512 32.1158 90.4512 31.928L90.3571 31.6463V31.5524L90.5453 31.4585H90.6395C90.6395 31.6463 90.7336 31.8341 90.9218 32.3976L91.0159 32.5854C91.1101 32.8671 91.5807 34.4635 91.6748 34.7452C91.6748 34.8391 91.7689 34.933 91.7689 35.0269V35.1208C91.6748 35.2147 90.8277 35.6843 90.8277 35.7782H90.7336L90.6395 35.6843V35.5904C90.6395 35.5904 91.1101 34.8391 91.2042 34.6513C91.2042 34.4635 91.2983 34.2757 91.2042 34.0879L90.9218 33.0549L88.9453 33.6183C89.0394 33.8061 89.1335 34.2757 89.2276 34.3696C89.3217 34.4635 89.4159 34.5574 89.6041 34.6513H89.9806H90.0747V34.8391V34.933C89.9806 34.933 89.51 35.1208 89.3217 35.1208C89.0394 35.2147 88.757 35.3086 88.5688 35.4026H88.4747L88.3805 35.3086V35.2147C88.4747 35.1208 88.5688 35.0269 88.6629 35.0269C88.757 34.933 88.8511 34.7452 88.8511 34.6513C88.8511 34.3696 88.757 34.0879 88.6629 33.9001L88.1923 33.8061V33.8061Z" fill="#58595B"/>
<path d="M92.1453 38.8772V38.6894C92.1453 38.5016 92.0512 37.9381 91.8629 37.6564C91.7688 37.4686 91.2041 37.2808 91.0159 37.1869C91.0159 37.1869 90.9217 37.1869 90.9217 37.093V36.9052H91.0159L92.3336 36.9991C92.4277 36.9991 92.4277 36.9991 92.4277 37.093C92.4277 37.093 92.4277 37.1869 92.3336 37.1869C92.2394 37.3747 92.2394 37.5625 92.2394 37.7503C92.2394 38.1259 92.3336 38.4076 92.4277 39.065L92.5218 39.4406C92.6159 40.1919 92.71 40.4736 92.8042 40.8492C92.8042 40.9431 92.9924 41.2248 93.0865 41.3187L93.1807 41.4126C93.1807 41.4126 93.1807 41.5065 93.0865 41.5065C92.9924 41.5065 92.1453 41.7883 91.7688 41.8822H91.6747L91.5806 41.7883V41.6944C91.7688 41.6005 92.1453 41.2248 92.2394 41.037C92.3336 40.8492 92.2394 40.1919 92.2394 39.9101V39.7223L88.5687 40.2858C88.004 40.3797 87.9098 40.4736 87.9098 40.6614L88.004 41.037L87.9098 41.1309H87.7216C87.7216 41.1309 87.6275 41.1309 87.6275 41.037C87.6275 40.9431 87.6275 40.7553 87.4392 40.0041C87.3451 39.2528 87.251 38.9711 87.251 38.8772C87.251 38.8772 87.251 38.7833 87.3451 38.7833H87.5333H87.6275L87.7216 39.1589C87.7216 39.2528 87.8157 39.3467 87.9098 39.3467C88.0981 39.3467 90.2629 38.9711 90.357 38.9711L92.1453 38.8772V38.8772Z" fill="#58595B"/>
<path fill-rule="evenodd" clip-rule="evenodd" d="M88.5689 47.1409H89.8866H90.169V47.3287C90.169 47.6768 90.0073 47.7829 89.7589 47.9461C89.7393 47.959 89.7191 47.9723 89.6984 47.986L89.6984 47.986C89.5101 48.08 89.1336 48.2678 89.0395 48.3617C88.9454 48.4556 88.3807 48.7373 88.1924 48.8312L88.1924 48.8312C88.1453 48.8782 88.0748 48.9251 88.0042 48.9721C87.9336 49.019 87.863 49.066 87.8159 49.1129V49.7703V50.4276C87.8159 50.4745 87.8159 50.498 87.8277 50.5097C87.8394 50.5215 87.8629 50.5215 87.91 50.5215H88.0983C88.1924 50.5215 88.1924 50.4276 88.1924 50.4276C88.1924 50.2398 88.2865 50.052 88.3806 49.9581C88.4748 49.8642 89.1336 49.3946 89.2277 49.3946C89.2748 49.3477 89.4631 49.2303 89.6513 49.1129C89.8395 48.9955 90.0278 48.8782 90.0748 48.8312C90.2631 48.7373 90.3572 48.6434 90.4513 48.4556C90.5455 49.2068 90.9219 49.7703 91.769 49.7703C92.0514 49.7703 92.4279 49.6764 92.6161 49.3946C92.8985 49.2068 93.0867 48.7373 93.0867 48.1739V46.9531C93.1809 46.2957 93.1809 46.1079 93.1809 46.014C93.1809 45.9201 93.0867 45.9201 93.0867 45.9201H92.8985V46.014V46.2957C92.8985 46.3896 92.8044 46.4835 92.522 46.4835L90.6396 46.3896C90.2505 46.3896 89.8866 46.3646 89.5348 46.3403C89.2058 46.3177 88.8873 46.2957 88.5689 46.2957C88.3806 46.2957 88.3806 46.2018 88.3806 46.014V45.7323H88.2865H88.0983C88.0042 45.7323 88.0042 45.8262 88.0042 45.8262V46.7653C87.91 47.5165 87.91 47.6104 87.91 47.7043C87.91 47.7512 87.91 47.7747 87.9218 47.7865C87.9335 47.7982 87.9571 47.7982 88.0042 47.7982H88.1924C88.2865 47.7982 88.2865 47.7043 88.2865 47.7043V47.3287C88.2865 47.2348 88.3806 47.1409 88.5689 47.1409ZM90.5455 47.5165V47.2348H92.6161C92.7103 47.2348 92.8044 47.2348 92.8044 47.3287V47.6104C92.7103 47.986 92.6161 48.2678 92.4279 48.5495C92.3338 48.7373 91.9573 48.8312 91.6749 48.8312C91.3925 48.8312 90.5455 48.6434 90.5455 47.5165Z" fill="#58595B"/>
<path d="M89.6981 52.6813C89.3217 52.5874 88.6628 52.4935 88.4746 52.4935C88.0981 52.3996 87.9098 52.4935 87.9098 52.6813C87.9098 52.7752 87.8157 52.9631 87.8157 53.2448C87.8157 53.3387 87.7216 53.7143 87.7216 53.8082C87.7216 53.9021 87.7216 54.1838 87.9098 54.3716C88.004 54.5595 88.3804 54.9351 88.5687 55.1229V55.2168L88.4746 55.3107H88.3804L87.3451 54.8412C87.251 54.8412 87.251 54.7473 87.251 54.6534C87.251 54.6534 87.251 54.4655 87.3451 53.996C87.4392 53.5265 87.5333 52.8691 87.7216 51.6484C87.7216 51.3666 87.8157 51.1788 87.8157 51.0849V50.8032C87.8157 50.8032 87.8157 50.7093 87.9098 50.8032H88.0981C88.0981 50.8032 88.1922 50.8032 88.0981 50.8971V51.1788C88.004 51.4606 88.0981 51.5545 88.3804 51.5545L90.7335 51.9301C91.2982 52.024 92.1453 52.1179 92.2394 52.1179C92.4277 52.1179 92.5218 52.024 92.5218 51.8362V51.5545H92.6159H92.8042C92.8042 51.5545 92.8983 51.5545 92.8042 51.6484C92.8042 51.8362 92.71 52.024 92.6159 52.5874V52.7752C92.5218 53.057 92.3336 54.6534 92.2394 54.9351V55.2168L92.1453 55.3107C92.0512 55.3107 91.11 55.4046 91.0159 55.4985H90.9217V55.4046V55.3107C90.9217 55.3107 91.6747 54.8412 91.8629 54.6534C91.9571 54.5595 92.0512 54.3716 92.1453 54.1838L92.3336 53.1509L90.357 52.7752C90.357 52.9631 90.2629 53.5265 90.2629 53.5265C90.2629 53.7143 90.2629 53.8082 90.4511 53.9021C90.5452 53.996 90.7335 54.0899 90.8276 54.0899C90.8276 54.0899 90.9217 54.0899 90.8276 54.1838V54.3716H90.7335C90.6394 54.3716 90.1688 54.2777 89.9805 54.2777C89.6981 54.2777 89.3217 54.1838 89.2275 54.1838V54.0899V53.9021L89.3217 53.8082C89.4158 53.8082 89.604 53.8082 89.6981 53.7143C89.8864 53.7143 89.9805 53.5265 89.9805 53.4326C90.0746 53.1509 90.0746 52.8691 90.1688 52.6813H89.6981V52.6813Z" fill="#58595B"/>
<path d="M86.31 60.6633H86.1218C86.0276 60.6633 86.0276 60.5694 86.0276 60.5694C85.9335 59.9121 85.9335 59.3486 86.1218 58.5035C86.31 57.8461 86.7806 57.0949 87.4395 56.8132C88.0042 56.5315 88.6631 56.5315 89.416 56.7193C90.0749 56.9071 90.6396 57.3766 90.922 58.034C91.2043 58.6913 91.2043 59.3486 91.0161 60.0999C90.8279 60.7572 90.4514 61.2268 90.2631 61.3207C90.169 61.4146 90.169 61.4146 90.2631 61.5085L90.3573 61.6024C90.3573 61.6963 90.4514 61.6963 90.3573 61.6963C90.3573 61.7902 90.2631 61.7902 90.2631 61.7902L88.8513 61.4146C88.7572 61.4146 88.7572 61.4146 88.7572 61.3207V61.1329C88.7572 61.1329 88.7572 61.039 88.8513 61.039C89.1337 61.039 89.6043 60.945 89.9808 60.7572C90.2631 60.5694 90.6396 60.2877 90.8279 59.8182C90.922 59.4425 90.922 58.973 90.6396 58.5035C90.3573 58.034 89.8866 57.6583 89.3219 57.4705C88.5689 57.1888 87.816 57.2827 87.2512 57.4705C86.8747 57.6583 86.5924 57.9401 86.4983 58.4096C86.4041 58.8791 86.31 59.0669 86.4041 59.3486C86.4041 59.5365 86.5924 59.6304 86.9689 59.7243L87.4395 59.9121C87.7218 60.006 87.816 59.9121 87.816 59.7243L87.9101 59.4425H88.0042H88.1924C88.1924 59.4425 88.2866 59.4425 88.1924 59.5365C88.1924 59.6304 88.0042 59.9121 87.9101 60.4755C87.7218 61.039 87.7218 61.3207 87.6277 61.3207C87.6277 61.4146 87.6277 61.4146 87.5336 61.4146L87.3454 61.3207C87.3454 61.3207 87.2512 61.3207 87.3454 61.2268L87.4395 61.039C87.4395 60.945 87.4395 60.8511 87.2512 60.7572L86.31 60.6633V60.6633Z" fill="#58595B"/>
<path d="M86.6861 64.0439C86.5919 64.0439 85.086 63.3866 85.086 63.3866C84.8977 63.2927 84.8036 63.3866 84.7095 63.5744L84.6154 63.8561H84.5213L84.333 63.7622V63.6683C84.333 63.5744 84.5213 63.3866 84.7095 62.7293C84.9919 62.0719 85.086 61.7902 85.086 61.6963H85.1801L85.3683 61.7902V61.8841L85.2742 62.0719C85.1801 62.1658 85.1801 62.3536 85.3683 62.4475C85.4625 62.5414 86.8743 63.1049 87.1567 63.2927L87.6273 63.4805C87.8155 63.5744 88.945 64.0439 89.0391 64.0439C89.2273 64.0439 89.3215 64.0439 89.4156 63.8561L89.6038 63.4805H89.698L89.8862 63.5744V63.6683C89.8862 63.7622 89.698 64.0439 89.4156 64.7013C89.1332 65.3586 89.0391 65.5464 89.0391 65.6403H88.945L88.7567 65.5464V65.4525L88.8509 65.1708C88.945 64.983 88.945 64.8891 88.7567 64.8891C88.6626 64.8891 87.2508 64.2318 87.1567 64.2318L86.6861 64.0439V64.0439Z" fill="#58595B"/>
<path d="M84.9918 66.8612C84.6153 66.6734 84.0506 66.3916 83.9565 66.2977C83.6741 66.1099 83.4859 66.2038 83.2976 66.2977C83.2035 66.3916 83.1094 66.4855 83.0153 66.7673C82.9212 66.8612 82.827 67.1429 82.7329 67.3307C82.6388 67.4246 82.6388 67.7063 82.6388 67.988C82.6388 68.1759 82.9212 68.7393 83.0153 68.9271V69.021L82.9212 69.1149H82.827L82.0741 68.2698C82.0741 68.1759 81.9799 68.1759 82.0741 68.0819L82.3564 67.5185C82.5447 67.1429 82.9212 66.4855 83.4859 65.4526L83.7683 64.8891C83.8624 64.7952 83.8624 64.7013 83.8624 64.6074H83.9565L84.1447 64.7013V64.7952L84.0506 64.983C83.8624 65.2648 83.9565 65.2648 84.1447 65.4526L86.2154 66.5794C86.686 66.8612 87.5331 67.2368 87.6273 67.3307C87.8155 67.4246 87.9096 67.3307 88.0037 67.1429L88.0979 66.9551H88.192L88.3802 67.049V67.1429C88.2861 67.2368 88.192 67.5185 87.9096 67.988L87.8155 68.1759C87.6272 68.4576 86.8743 69.8662 86.7802 70.1479C86.5919 70.054 86.5919 70.2418 86.5919 70.2418H86.4978C86.4037 70.2418 85.4624 69.9601 85.3683 69.9601C85.3683 69.9601 85.2742 69.9601 85.2742 69.8662V69.7723H85.3683C85.4624 69.7723 86.3095 69.5844 86.4037 69.4905C86.5919 69.3966 86.686 69.3027 86.7802 69.1149L87.3449 68.1759L85.6507 67.1429C85.5566 67.3307 85.2742 67.8002 85.2742 67.8941C85.1801 68.0819 85.2742 68.1759 85.3683 68.2698L85.6507 68.5515V68.6454L85.5566 68.8332H85.4624C85.3683 68.7393 84.9918 68.5515 84.8036 68.4576C84.5212 68.3637 84.2389 68.1759 84.1447 68.0819V67.988L84.2389 67.8002H84.333C84.4271 67.8002 84.6153 67.8941 84.7095 67.8941C84.8977 67.8941 84.9918 67.8002 85.086 67.7063C85.2742 67.5185 85.3683 67.2368 85.5566 67.049L84.9918 66.8612V66.8612Z" fill="#58595B"/>
<path d="M83.58 71.4626C82.6388 70.7113 81.7917 70.2418 81.6035 70.1479C81.3211 69.9601 81.1329 69.9601 80.9446 70.1479L80.8505 70.3357H80.7564L80.6623 70.2418V70.1479C80.6623 70.054 80.9446 69.7722 81.1329 69.5844C81.227 69.3966 81.5094 69.021 81.5094 69.021H81.6035L81.7917 69.1149V69.2088L81.6035 69.3966C81.5094 69.5844 81.6035 69.6783 81.8858 69.9601C81.98 70.054 82.7329 70.6174 83.6742 71.2747L84.4271 71.8382C84.8036 72.1199 85.1801 72.1199 85.3684 71.8382L85.4625 71.6504H85.5566L85.7448 71.7443V71.8382C85.7448 71.8382 85.6507 71.9321 85.6507 72.026C85.5566 72.1199 85.4625 72.3077 85.2742 72.4955C85.1801 72.5894 85.1801 72.6833 85.086 72.7772C84.9919 72.8711 84.9919 72.8711 84.9919 72.9651C84.8977 73.059 84.8977 73.059 84.8036 73.059C84.7095 73.059 82.4506 73.1529 82.2623 73.1529C82.0741 73.1529 80.3799 73.2468 80.1917 73.2468L80.7564 73.7163C81.227 74.0919 81.5094 74.2797 81.7917 74.4675C81.98 74.6554 82.5447 75.031 82.7329 75.031C82.9212 75.1249 83.1094 75.031 83.2036 74.8432L83.2977 74.6554H83.3918L83.4859 74.7493V74.8432C83.3918 74.9371 83.2977 75.1249 83.0153 75.5005C82.7329 75.8761 82.6388 75.97 82.6388 76.064H82.5447L82.4506 75.97C82.4506 75.97 82.3565 75.8761 82.4506 75.8761L82.5447 75.6883C82.6388 75.5944 82.5447 75.4066 82.3565 75.3127C81.98 75.031 81.0388 74.2797 80.474 73.8102L78.9681 72.6833C78.8739 72.5894 78.7798 72.5894 78.8739 72.4955C78.9681 72.4016 79.0622 72.4016 79.0622 72.4016C79.1563 72.4016 79.721 72.3077 80.3799 72.3077C81.1329 72.3077 81.98 72.2138 82.1682 72.2138C82.2623 72.2138 84.1448 72.1199 84.2389 72.1199L83.58 71.4626V71.4626Z" fill="#58595B"/>
<path d="M78.7799 75.0309C78.4976 74.8431 78.3093 74.7492 77.9328 74.6553C77.5563 74.5614 77.1799 74.7492 76.8975 74.937C76.6151 75.2188 76.4269 75.7822 76.8975 76.1578C77.3681 76.6273 77.7446 76.5334 78.4034 76.1578C78.5917 76.0639 79.0623 75.8761 79.5329 75.7822C79.8153 75.7822 80.1918 75.8761 80.4741 76.2517C80.7565 76.5334 80.8506 76.8152 80.8506 77.2847C80.8506 77.6603 80.6624 77.942 80.38 78.2237C80.0976 78.5994 79.8153 78.6933 79.627 78.7872C79.5329 78.7872 79.5329 78.8811 79.5329 78.8811V78.975V79.0689H79.4388C79.3447 78.975 78.5917 78.4116 78.4976 78.3177V78.2237L78.5917 78.1298H78.6858C78.874 78.2237 79.1564 78.3177 79.5329 78.3177C79.8153 78.3177 80.0035 78.2237 80.2859 77.942C80.6624 77.5664 80.4741 77.0969 80.2859 76.9091C80.0976 76.7212 79.9094 76.6273 79.7211 76.6273C79.4388 76.6273 79.0623 76.8152 78.7799 76.9091C78.4034 77.0969 78.1211 77.2847 77.6505 77.2847C77.3681 77.2847 76.9916 77.1908 76.7092 76.8152C76.0504 76.2517 75.9563 75.3127 76.6151 74.6553C76.9916 74.2797 77.3681 74.0919 77.6505 73.998C77.7446 73.998 77.8387 73.998 77.8387 73.9041V73.7163V73.5284H77.9328C78.0269 73.6223 78.7799 74.4675 78.7799 74.5614V74.6553V75.0309V75.0309Z" fill="#58595B"/>
<path d="M75.3916 79.3507C75.3916 79.2568 74.2621 78.1299 74.168 78.036C73.9798 77.8482 73.8856 77.9421 73.7915 78.036L73.6033 78.2238H73.5092L73.415 78.1299V78.036C73.5092 77.9421 73.6974 77.8482 74.168 77.3786C74.7327 76.9091 74.921 76.7213 74.921 76.6274H75.0151L75.1092 76.8152V76.9091L74.921 77.0969C74.8269 77.1908 74.7327 77.2847 74.8269 77.4725C74.921 77.5664 75.8622 78.6933 76.1446 78.975L76.4269 79.3507C76.5211 79.4446 77.3682 80.3836 77.4623 80.4775C77.5564 80.5714 77.6505 80.5714 77.8388 80.4775L78.1211 80.1958H78.2153L78.3094 80.2897V80.3836C78.2153 80.4775 77.9329 80.6653 77.4623 81.1349C76.9917 81.6044 76.8034 81.7922 76.7093 81.7922H76.6152L76.5211 81.6983V81.6044L76.7093 81.4166C76.8034 81.3227 76.8975 81.2288 76.8034 81.1349C76.8034 81.041 75.7681 79.9141 75.674 79.8202L75.3916 79.3507V79.3507Z" fill="#58595B"/>
<path d="M73.3208 80.1019V80.1019C73.1326 79.9141 72.9443 79.7263 72.5678 79.6324C72.1913 79.4446 71.8148 79.5385 71.5325 79.8202C71.2501 80.008 70.9678 80.5714 71.2501 81.041C71.6266 81.6044 72.0031 81.5105 72.7561 81.3227C72.9443 81.2288 73.509 81.1349 73.8855 81.1349C74.1679 81.1349 74.5444 81.4166 74.7326 81.6983C75.015 81.98 75.015 82.3557 74.9209 82.8252C74.8267 83.2008 74.6385 83.4825 74.3561 83.6703C73.9797 83.9521 73.6973 84.046 73.509 84.046C73.4149 84.046 73.4149 84.1399 73.4149 84.1399V84.2338C73.4149 84.2338 73.4149 84.3277 73.3208 84.3277C73.3208 84.3277 73.2267 84.3277 73.2267 84.2338C73.1326 84.1399 72.4737 83.3886 72.4737 83.3886V83.2947L72.5678 83.2008H72.6619C72.8502 83.2947 73.1326 83.4825 73.4149 83.5764C73.6973 83.6703 73.8855 83.5764 74.1679 83.3886C74.6385 83.013 74.5444 82.5435 74.3561 82.3557C74.1679 82.1679 74.0738 81.98 73.7914 81.98C73.509 81.98 73.1326 82.0739 72.8502 82.1679C72.4737 82.3557 72.0972 82.3557 71.7207 82.3557C71.4384 82.2618 71.156 82.1679 70.8736 81.7922C70.403 81.1349 70.403 80.1958 71.156 79.6324C71.6266 79.2568 72.0031 79.1629 72.2855 79.1629H72.4737V78.975C72.4737 78.8811 72.4737 78.8811 72.5678 78.7872H72.6619C72.6619 78.8811 73.3208 79.8202 73.3208 79.9141V80.008V80.1019V80.1019Z" fill="#58595B"/>
<path d="M39.9075 88.5534V87.7083C39.9075 87.4266 39.8134 87.3327 39.4369 87.3327H39.0604H38.9663V87.0509C38.9663 87.0509 38.9663 86.957 39.0604 86.957H40.284H41.5076C41.6017 86.957 41.6017 86.957 41.6017 87.0509V87.3327C41.6017 87.4266 41.6017 87.4266 41.5076 87.4266H41.037C40.7546 87.4266 40.6605 87.5205 40.6605 87.8022V88.8352V89.3047V90.5255C40.6605 90.8072 40.8487 90.995 41.2252 90.995H41.6017C41.6017 90.995 41.6958 90.995 41.6958 91.0889V91.1828C41.6958 91.2767 41.6958 91.2767 41.6017 91.2767H40.3781H39.0604C38.9663 91.2767 38.9663 91.2767 38.9663 91.1828V90.9011C38.9663 90.8072 38.9663 90.8072 39.0604 90.8072H39.3428C39.6252 90.8072 39.8134 90.7133 39.9075 90.4316V88.9291V88.5534V88.5534Z" fill="#58595B"/>
<path d="M43.7669 88.5534V87.7083C43.7669 87.4266 43.6728 87.3327 43.2963 87.3327H42.9198H42.8257V87.0509C42.8257 87.0509 42.8257 86.957 42.9198 86.957H44.1434H45.367C45.4611 86.957 45.4611 86.957 45.4611 87.0509V87.3327C45.4611 87.4266 45.4611 87.4266 45.367 87.4266H44.8964C44.614 87.4266 44.5199 87.5205 44.5199 87.8022V88.8352V89.3047V90.5255C44.5199 90.8072 44.7081 90.995 45.0846 90.995H45.4611C45.4611 90.995 45.5552 90.995 45.5552 91.0889V91.1828C45.5552 91.2767 45.5552 91.2767 45.4611 91.2767H44.2375H42.9198C42.8257 91.2767 42.8257 91.2767 42.8257 91.1828V90.9011C42.8257 90.8072 42.8257 90.8072 42.9198 90.8072H43.2022C43.4845 90.8072 43.6728 90.7133 43.7669 90.4316V88.9291V88.5534V88.5534Z" fill="#58595B"/>
<path d="M46.8726 93.7183C46.8726 93.5305 47.0609 93.1548 47.155 92.967C47.4374 92.4036 49.3198 88.6474 49.7904 87.8022H47.8138C47.2491 87.8022 46.9667 88.0839 46.7785 88.3656H46.6844C46.5903 88.3656 46.4961 88.2717 46.5903 88.1778C46.7785 87.8961 47.3432 86.7692 47.3432 86.6753C47.3432 86.5814 47.4374 86.5814 47.4374 86.5814C47.4374 86.5814 47.6256 86.5814 47.6256 86.6753C47.6256 86.7692 47.6256 86.7692 47.5315 86.8631C47.5315 87.051 47.6256 87.051 47.908 87.051H50.4493C50.5434 87.051 50.6375 87.1449 50.5434 87.2388C50.1669 87.8961 49.2257 89.6803 49.0374 90.0559C48.9433 90.2438 47.8138 92.5914 47.6256 93.2488C47.4374 93.8122 47.3432 94 47.155 94C46.9667 94 46.8726 93.9061 46.8726 93.7183V93.7183Z" fill="#58595B"/>
<path d="M51.0142 93.0609C51.0142 92.8731 51.1083 92.7792 51.2965 92.7792C51.4848 92.7792 51.673 92.967 51.673 92.967C51.7671 93.0609 51.9554 93.1548 52.3319 93.1548C52.9907 93.1548 53.4613 92.5914 53.4613 91.6523C53.4613 90.2438 52.5201 89.962 51.5789 89.7742L52.0495 87.1449C52.0495 87.051 52.1436 87.051 52.2377 87.051H53.5555C54.0261 87.051 54.1202 86.7692 54.2143 86.5814H54.3084V86.6753L54.0261 87.6144C54.0261 87.8022 53.8378 87.8022 53.7437 87.8022H52.3319L52.0495 89.1169C53.0848 89.3047 54.1202 89.962 54.1202 91.3706C54.1202 92.6853 53.0848 93.6244 52.1436 93.6244C51.5789 93.5305 51.0142 93.4366 51.0142 93.0609H51.0142Z" fill="#58595B"/>
<path d="M114.923 19.1569V33.1489C114.923 38.4076 117.276 40.6614 120.382 40.6614C123.864 40.6614 126.123 38.3137 126.123 33.1489V19.1569H129.229V32.9611C129.229 40.1918 125.37 43.1029 120.288 43.1029C115.488 43.1029 111.817 40.3796 111.817 33.055V19.1569H114.923V19.1569Z" fill="#58595B"/>
<path d="M136.194 42.6334V19.1569H139.583L147.112 31.0829C148.807 33.8062 150.218 36.3417 151.348 38.6893H151.442C151.16 35.5904 151.066 32.6793 151.066 29.017V19.1569H153.983V42.7273H150.877L143.348 30.8012C141.748 28.1718 140.147 25.4486 139.018 22.9131H138.924C139.112 25.9181 139.112 28.7353 139.112 32.5854V42.6334H136.194H136.194Z" fill="#58595B"/>
<path d="M164.054 19.1569V42.7273H160.948V19.1569L164.054 19.1569Z" fill="#58595B"/>
<path d="M190.973 32.3037C190.785 29.017 190.597 25.0729 190.597 22.1619H190.503C189.656 24.8851 188.714 27.8901 187.491 31.0829L183.35 42.5395H180.996L177.137 31.3647C176.008 28.0779 175.067 24.979 174.408 22.2558H174.314C174.22 25.1669 174.031 29.1109 173.843 32.6793L173.184 42.7273H170.267L171.867 19.1569H175.726L179.773 30.5195C180.714 33.4306 181.561 36.06 182.126 38.5015H182.22C182.879 36.1539 183.726 33.5245 184.761 30.5195L188.997 19.1569H192.856L194.362 42.7273H191.35L190.973 32.3037V32.3037Z" fill="#F04926"/>
<path fill-rule="evenodd" clip-rule="evenodd" d="M199.632 31.1769C199.632 38.3137 203.962 43.1029 210.268 43.1029C216.292 43.1029 221.186 38.6893 221.186 30.7073C221.186 23.6644 217.045 18.7812 210.55 18.7812C204.244 18.7812 199.632 23.6644 199.632 31.1769ZM217.986 30.8012C217.986 36.1539 215.257 40.5675 210.456 40.5675C205.562 40.5675 202.832 35.9661 202.832 30.989C202.832 25.9181 205.374 21.2228 210.456 21.2228C215.539 21.2228 217.986 26.1059 217.986 30.8012Z" fill="#F04926"/>
<path d="M259.682 31.6464H250.552V40.0979H260.812V42.6334H247.541V19.1569H260.341V21.6923H250.647V29.1109H259.776V31.6464H259.682Z" fill="#F04926"/>
<path fill-rule="evenodd" clip-rule="evenodd" d="M239.54 42.6334H243.023C242.552 41.7882 241.893 39.5345 241.046 36.2477C240.482 33.8062 239.258 32.1159 237.281 31.4585V31.3646C240.011 30.5195 242.176 28.4535 242.176 25.3546V24.6034C241.988 22.7253 241.14 21.4106 239.54 20.3776C239.493 20.3307 239.446 20.3072 239.399 20.2837C239.352 20.2602 239.305 20.2368 239.258 20.1898C239.211 20.1429 239.164 20.1194 239.117 20.0959C239.07 20.0724 239.023 20.0489 238.976 20.002C238.929 20.002 238.905 19.9785 238.882 19.955C238.858 19.9316 238.834 19.9081 238.787 19.9081H238.693C237.187 19.2507 235.775 18.969 233.799 18.8751H233.705H232.669H232.481H232.293H231.822C229.752 18.8751 227.493 19.1568 225.987 19.4386V42.6334H229.093V32.3976H232.575C235.681 32.4915 237.093 33.7123 237.846 36.999C238.505 39.9101 239.164 41.976 239.54 42.6334ZM238.787 25.6364C238.787 28.3596 236.811 30.1439 232.293 30.1439H229.187V21.5984C229.658 21.4106 231.822 21.3167 233.328 21.3167C235.681 21.3167 238.787 22.2557 238.787 25.6364Z" fill="#F04926"/>
<path d="M115.299 62.2597C112.758 62.2597 112.381 60.0999 112.381 58.7852V53.6204H113.228V58.6913C113.228 60.4755 113.981 61.4146 115.299 61.4146C116.711 61.4146 117.464 60.4755 117.464 58.6913V53.6204H118.311V58.6913C118.405 61.978 116.24 62.2597 115.299 62.2597V62.2597Z" fill="#58595B"/>
<path d="M126.876 62.1658H126.123L122.923 57.2827C122.452 56.5315 121.982 55.8741 121.605 55.2168V57.8461V62.1658H120.758V53.6204H121.511V53.7143L124.711 58.5974C125.182 59.3486 125.653 60.006 125.935 60.5694C125.935 59.7243 125.841 58.973 125.841 57.8461V53.6204H126.688V62.1658H126.876Z" fill="#58595B"/>
<rect x="129.229" y="53.6204" width="0.847097" height="8.54545" fill="#58595B"/>
<path d="M135.065 62.1658H134.312V62.0719L131.488 53.6204H132.43V53.7143L133.935 58.2218C134.218 59.1609 134.5 60.006 134.688 60.7573C134.971 59.9121 135.253 58.973 135.63 58.034L137.23 53.5265H138.171L135.065 62.1658V62.1658Z" fill="#58595B"/>
<path d="M143.912 62.1658H139.395V53.6204H143.724V54.4655H140.242V57.2827H143.536V58.1279H140.242V61.4146H143.912V62.1658Z" fill="#58595B"/>
<path fill-rule="evenodd" clip-rule="evenodd" d="M150.313 59.8182C150.501 60.945 150.689 61.6024 150.878 61.978L150.972 62.2597H150.03V62.1658C149.842 61.8841 149.654 61.1328 149.466 60.0999C149.277 58.8791 148.807 58.4096 147.771 58.4096H146.642V62.1658H145.795V53.8082H145.889C146.36 53.7143 147.019 53.6204 147.677 53.6204C148.807 53.6204 149.56 53.9021 150.03 54.3716C150.501 54.7472 150.689 55.4046 150.689 55.968C150.689 56.9071 150.219 57.7522 149.277 58.1279C149.748 58.4096 150.125 58.973 150.313 59.8182ZM146.642 57.6583H147.771C148.995 57.6583 149.748 57.001 149.748 55.968C149.748 54.6533 148.619 54.3716 147.677 54.3716C147.389 54.3716 147.136 54.4068 146.94 54.4342C146.816 54.4514 146.715 54.4655 146.642 54.4655V57.6583Z" fill="#58595B"/>
<path d="M154.266 62.2597C153.513 62.2597 152.666 61.978 152.195 61.6963L152.101 61.6024L152.478 60.8511L152.666 60.945C153.136 61.2267 153.795 61.4145 154.36 61.4145C155.489 61.4145 156.242 60.8511 156.242 59.8181C156.242 58.973 155.772 58.5035 154.642 58.0339C153.136 57.4705 152.383 56.7192 152.383 55.5924C152.383 54.2777 153.419 53.3386 154.925 53.3386C155.772 53.3386 156.337 53.5264 156.619 53.7142L156.713 53.8082L156.337 54.5594L156.148 54.4655C155.96 54.2777 155.395 54.0899 154.831 54.0899C153.513 54.0899 153.231 54.935 153.231 55.4046C153.231 56.1558 153.607 56.6253 154.831 57.0949C156.148 57.6583 156.995 58.2217 156.995 59.6303C156.995 61.5085 155.584 62.2597 154.266 62.2597V62.2597Z" fill="#58595B"/>
<rect x="158.972" y="53.6204" width="0.941219" height="8.54545" fill="#58595B"/>
<path d="M164.619 62.1658H163.772V54.4655H161.042V53.6204H167.349V54.4655H164.619V62.1658Z" fill="#58595B"/>
<path d="M169.796 51.3666V51.3666H168.667H168.384L168.573 51.5544L170.361 53.0569V53.0569V53.0569H171.114H171.302L171.114 52.8691L169.796 51.4605V51.3666V51.3666Z" fill="#58595B"/>
<path fill-rule="evenodd" clip-rule="evenodd" d="M170.831 53.6204V53.7143L173.937 62.1658H172.996L171.961 59.2547H168.949L167.913 62.1658H166.972L170.078 53.6204H170.831ZM170.172 55.968L169.231 58.5035H171.678L170.737 55.968C170.643 55.5924 170.549 55.3107 170.455 55.029L170.455 55.029C170.361 55.3107 170.266 55.5924 170.172 55.968Z" fill="#58595B"/>
<path fill-rule="evenodd" clip-rule="evenodd" d="M180.902 53.6204C182.408 53.6204 183.538 53.996 184.291 54.7472C185.044 55.4985 185.326 56.4375 185.42 57.7522C185.42 59.0669 185.044 60.0999 184.291 60.945C183.538 61.7902 182.22 62.2597 180.62 62.2597C180.217 62.2597 179.867 62.2328 179.543 62.2077C179.262 62.186 179 62.1658 178.738 62.1658H178.644V53.8082H178.738C178.814 53.7987 178.889 53.7892 178.963 53.7798C179.625 53.6963 180.226 53.6204 180.902 53.6204ZM179.491 61.4146H180.62C183.067 61.4146 184.479 60.0999 184.479 57.8461C184.479 56.8132 184.197 55.968 183.632 55.4046C182.973 54.7472 182.032 54.4655 180.808 54.4655C180.244 54.4655 179.773 54.4655 179.491 54.5594V61.4146Z" fill="#58595B"/>
<path d="M191.726 62.1658H187.208V53.6204H191.538V54.4655H188.056V57.2827H191.35V58.1279H188.056V61.4146H191.726V62.1658Z" fill="#58595B"/>
<path d="M197.185 62.2598C195.867 62.2598 194.926 61.8841 194.173 61.1329C193.42 60.3816 192.95 59.2548 192.95 57.9401C192.95 55.7802 194.362 53.5265 197.373 53.5265C198.315 53.5265 199.068 53.8082 199.35 53.9021L199.444 53.996L199.162 54.7473L198.974 54.6534C198.503 54.4656 197.938 54.2777 197.279 54.2777C195.115 54.2777 193.797 55.6863 193.797 57.8462C193.797 60.0999 195.02 61.4146 197.185 61.4146C198.032 61.4146 198.503 61.3207 198.785 61.2268V58.5974H196.903V57.8462H199.726V61.7902H199.632C199.35 61.978 198.409 62.2598 197.185 62.2598V62.2598Z" fill="#58595B"/>
<path d="M206.409 62.1658H201.892V53.6204H202.739V61.4146H206.409V62.1658Z" fill="#58595B"/>
<rect x="208.009" y="53.6204" width="0.847097" height="8.54545" fill="#58595B"/>
<path d="M216.292 62.2597C215.539 62.2597 214.692 61.978 214.222 61.6963L214.127 61.6024L214.504 60.8511L214.692 60.945C215.163 61.2267 215.822 61.4145 216.386 61.4145C217.516 61.4145 218.269 60.8511 218.269 59.8181C218.269 58.973 217.798 58.5035 216.669 58.0339C215.163 57.4705 214.41 56.7192 214.41 55.5924C214.41 54.2777 215.445 53.3386 216.951 53.3386C217.798 53.3386 218.363 53.5264 218.645 53.7142L218.739 53.8082L218.363 54.5594L218.175 54.4655C217.986 54.2777 217.422 54.0899 216.857 54.0899C215.539 54.0899 215.257 54.935 215.257 55.4046C215.257 56.1558 215.633 56.6253 216.857 57.0949C218.175 57.6583 219.022 58.2217 219.022 59.6303C219.022 61.5085 217.61 62.2597 216.292 62.2597V62.2597Z" fill="#58595B"/>
<path d="M223.445 62.1658H222.504V54.4655H219.869V53.6204H226.081V54.4655H223.445V62.1658Z" fill="#58595B"/>
<path d="M230.222 62.2597C227.681 62.2597 227.304 60.0999 227.304 58.7852V53.6204H228.151V58.6913C228.151 60.4755 228.904 61.4146 230.222 61.4146C231.634 61.4146 232.387 60.4755 232.387 58.6913V53.6204H233.234V58.6913C233.328 61.978 231.163 62.2597 230.222 62.2597V62.2597Z" fill="#58595B"/>
<path fill-rule="evenodd" clip-rule="evenodd" d="M237.94 53.6204C239.446 53.6204 240.575 53.996 241.328 54.7472C242.081 55.4985 242.458 56.4375 242.458 57.7522C242.458 59.0669 242.081 60.0999 241.328 60.945C240.575 61.7902 239.258 62.2597 237.658 62.2597C237.254 62.2597 236.905 62.2328 236.58 62.2077C236.299 62.186 236.037 62.1658 235.775 62.1658H235.681V53.8082H235.775C235.851 53.7987 235.926 53.7892 236.001 53.7798C236.662 53.6963 237.263 53.6204 237.94 53.6204ZM236.622 61.4146H237.752C240.199 61.4146 241.517 60.0999 241.611 57.8461C241.611 56.8132 241.328 55.968 240.764 55.4046C240.105 54.7472 239.164 54.4655 237.94 54.4655C237.375 54.4655 236.905 54.4655 236.622 54.5594V61.4146Z" fill="#58595B"/>
<rect x="243.964" y="53.6204" width="0.847097" height="8.54545" fill="#58595B"/>
<rect x="258.553" y="53.6204" width="0.847097" height="8.54545" fill="#58595B"/>
<path fill-rule="evenodd" clip-rule="evenodd" d="M252.623 53.6204C254.129 53.6204 255.259 53.996 256.012 54.7472C256.67 55.4985 257.047 56.4375 257.141 57.7522C257.141 59.0669 256.765 60.0999 256.012 60.945C255.259 61.7902 253.941 62.2597 252.341 62.2597C251.937 62.2597 251.588 62.2328 251.263 62.2077C250.983 62.186 250.72 62.1658 250.458 62.1658H250.364V53.8082H250.458C250.534 53.7987 250.61 53.7892 250.684 53.7798C251.345 53.6963 251.946 53.6204 252.623 53.6204ZM251.117 61.4146H252.341C254.788 61.4146 256.2 60.0999 256.106 57.8461C256.106 56.8132 255.823 55.968 255.259 55.4046C254.6 54.7472 253.659 54.4655 252.435 54.4655C251.87 54.4655 251.4 54.4655 251.117 54.5594V61.4146Z" fill="#58595B"/>
<path d="M120.1 74.3736H119.252V74.1858L118.97 69.8661C118.876 69.1149 118.876 68.1758 118.876 67.4246C118.594 68.0819 118.405 68.8332 118.029 69.7722L116.241 74.3736H115.582L113.887 69.8661C113.511 68.9271 113.323 68.1758 113.04 67.5185C113.04 68.2697 112.946 69.3027 112.852 70.4296L112.57 74.3736H111.723L112.382 65.8282H113.323V65.9221L115.111 70.6174C115.393 71.4625 115.676 72.1199 115.864 72.8711C116.052 72.3077 116.335 71.5564 116.617 70.6174L118.499 65.7343H119.441L120.1 74.3736V74.3736Z" fill="#58595B"/>
<path fill-rule="evenodd" clip-rule="evenodd" d="M121.888 70.2417C121.888 67.6124 123.488 65.7343 125.747 65.7343C128.006 65.7343 129.512 67.5185 129.512 70.0539C129.512 73.1528 127.535 74.5614 125.653 74.5614C123.394 74.5614 121.888 72.7772 121.888 70.2417ZM122.923 70.1478C122.923 71.9321 123.864 73.7163 125.747 73.7163C127.064 73.7163 128.57 72.5894 128.664 70.0539C128.664 68.2697 127.723 66.4855 125.841 66.4855C123.864 66.4855 122.923 68.3636 122.923 70.1478Z" fill="#58595B"/>
<path fill-rule="evenodd" clip-rule="evenodd" d="M133.841 65.8282C135.347 65.8282 136.477 66.2038 137.23 66.9551C137.983 67.7063 138.359 68.7393 138.359 69.9601C138.359 71.2747 137.983 72.3077 137.23 73.1529C136.477 73.998 135.159 74.4675 133.559 74.4675H133.559C132.994 74.4675 132.335 74.4675 131.677 74.3736H131.583V66.016H131.677C131.753 66.0065 131.828 65.997 131.902 65.9876C132.564 65.9041 133.165 65.8282 133.841 65.8282ZM132.524 73.6224H133.653C136.1 73.6224 137.418 72.3077 137.512 70.054C137.512 69.021 137.23 68.1758 136.665 67.6124C136.006 66.9551 135.065 66.6733 133.841 66.6733C133.277 66.6733 132.806 66.6733 132.524 66.7672V73.6224Z" fill="#58595B"/>
<path d="M144.948 74.3736H140.43V65.8282H144.759V66.6733H141.277V69.4905H144.571V70.3357H141.277V73.6224H144.948V74.3736Z" fill="#58595B"/>
<path d="M153.136 74.3736H152.384L149.183 69.4905C148.713 68.7393 148.242 67.988 147.866 67.4246V70.054V74.3736H147.019V65.8282H147.772L150.972 70.7113C151.442 71.4626 151.913 72.1199 152.195 72.6833C152.195 71.8382 152.101 71.0869 152.101 69.9601V65.8282H152.948V74.3736H153.136Z" fill="#58595B"/>
<path fill-rule="evenodd" clip-rule="evenodd" d="M158.878 65.9221V66.016L161.984 74.4675H161.042L160.007 71.5564H156.995L155.96 74.4675H155.019L155.113 74.2797L158.125 65.9221H158.878ZM158.219 68.1758L157.277 70.7113H159.725L158.783 68.1758C158.689 67.8002 158.595 67.5185 158.501 67.2367L158.501 67.2367C158.407 67.5185 158.313 67.8002 158.219 68.1758Z" fill="#58595B"/>
<path d="M171.773 74.3736H167.161V65.8282H171.584V66.6733H168.102V69.4905H171.396V70.3357H168.102V73.6224H171.773V74.3736Z" fill="#58595B"/>
<path fill-rule="evenodd" clip-rule="evenodd" d="M181.938 72.026C182.126 73.1529 182.314 73.9041 182.503 74.1858L182.597 74.4675H181.655V74.3736C181.467 74.0919 181.279 73.3407 181.091 72.3077C180.902 71.0869 180.432 70.6174 179.396 70.6174H178.267V74.3736H177.42V66.016H177.514C177.985 65.9221 178.644 65.8282 179.302 65.8282C180.432 65.8282 181.185 66.1099 181.655 66.5794C182.126 66.9551 182.314 67.6124 182.314 68.1758C182.314 69.1149 181.844 69.9601 180.902 70.3357C181.373 70.6174 181.75 71.1808 181.938 72.026ZM178.267 69.8661H179.396C180.62 69.8661 181.373 69.2088 181.373 68.1758C181.373 66.8612 180.244 66.5794 179.302 66.5794C179.014 66.5794 178.761 66.6147 178.565 66.642C178.441 66.6592 178.34 66.6733 178.267 66.6733V69.8661Z" fill="#58595B"/>
<path d="M188.997 74.3736H184.479V65.8282H188.809V66.6733H185.326V69.4905H188.62V70.3357H185.326V73.6224H188.997V74.3736Z" fill="#58595B"/>
<path d="M194.738 74.4675C193.421 74.4675 192.479 74.0919 191.727 73.3406C190.974 72.5894 190.503 71.4625 190.503 70.1478C190.503 67.988 191.915 65.7343 194.927 65.7343C195.774 65.7343 196.527 65.9221 196.903 66.1099L196.997 66.2038L196.715 66.955L196.527 66.8611C196.056 66.6733 195.491 66.4855 194.833 66.4855C192.668 66.4855 191.35 67.8941 191.35 70.0539C191.35 72.3077 192.574 73.6224 194.738 73.6224C195.586 73.6224 196.056 73.5285 196.338 73.4346V70.8052H194.456V70.0539H197.28V73.998H197.186C196.903 74.1858 195.962 74.4675 194.738 74.4675V74.4675Z" fill="#58595B"/>
<path d="M203.303 74.4675C201.986 74.4675 201.044 74.0919 200.291 73.3406C199.538 72.5894 199.068 71.4625 199.068 70.1478C199.068 67.988 200.48 65.7343 203.492 65.7343C204.339 65.7343 205.092 65.9221 205.468 66.1099L205.562 66.2038L205.28 66.955L205.092 66.8611C204.621 66.6733 204.056 66.4855 203.397 66.4855C201.233 66.4855 199.915 67.8941 199.915 70.0539C199.915 72.3077 201.139 73.6224 203.303 73.6224C204.15 73.6224 204.621 73.5285 204.903 73.4346V70.8052H203.021V70.0539H205.845V73.998H205.751C205.374 74.1858 204.527 74.4675 203.303 74.4675V74.4675Z" fill="#58595B"/>
<rect x="208.104" y="65.8282" width="0.847097" height="8.54545" fill="#58595B"/>
<path fill-rule="evenodd" clip-rule="evenodd" d="M211.115 70.2417C211.115 67.6124 212.715 65.7343 214.974 65.7343C217.233 65.7343 218.739 67.5185 218.739 70.0539C218.739 73.1528 216.763 74.5614 214.88 74.5614C212.621 74.5614 211.115 72.7772 211.115 70.2417ZM212.056 70.1478C212.056 71.9321 212.998 73.7163 214.88 73.7163C216.292 73.7163 217.798 72.5894 217.798 70.0539C217.798 68.2697 216.857 66.4855 214.974 66.4855C212.998 66.4855 212.056 68.3636 212.056 70.1478Z" fill="#58595B"/>
<path d="M228.81 74.3736H224.292V65.8282H228.622V66.6733H225.14V69.4905H228.434V70.3357H225.14V73.6224H228.81V74.3736Z" fill="#58595B"/>
<path d="M238.975 74.3736H238.128V74.2797L237.846 69.7722C237.846 69.021 237.752 68.1758 237.752 67.5185C237.47 68.1758 237.281 68.9271 236.905 69.8661L235.116 74.4675H234.458L232.763 69.9601C232.481 69.1149 232.199 68.2697 231.916 67.6124C231.916 68.2697 231.822 69.3027 231.728 70.5235L231.446 74.4675H230.599L231.257 65.9221H232.199V66.016L233.987 70.7113C234.269 71.5565 234.552 72.3077 234.74 72.965C234.928 72.3077 235.211 71.5565 235.493 70.7113L237.375 65.8282H238.317V65.9221L238.975 74.3736V74.3736Z" fill="#58595B"/>
<rect x="241.329" y="65.8282" width="0.847097" height="8.54545" fill="#58595B"/>
<path d="M249.329 74.3736H244.811V65.8282H245.658V73.6224H249.329V74.3736Z" fill="#58595B"/>
<rect x="251.211" y="65.8282" width="0.847097" height="8.54545" fill="#58595B"/>
<path fill-rule="evenodd" clip-rule="evenodd" d="M257.894 65.9221V66.016L261 74.4675H260.059L259.024 71.5564H256.012L254.976 74.4675H254.035L254.129 74.2797L257.141 65.9221H257.894ZM257.141 68.1758L256.2 70.7113H258.647L257.706 68.1758C257.612 67.8002 257.518 67.5185 257.424 67.2367L257.424 67.2367C257.329 67.5185 257.235 67.8002 257.141 68.1758Z" fill="#58595B"/>
</svg>
